<?xml version="1.0" encoding="UTF-8" standalone="no"?>
<!-- Created with Inkscape (http://www.inkscape.org/) -->

<svg
   xmlns:dc="http://purl.org/dc/elements/1.1/"
   xmlns:cc="http://creativecommons.org/ns#"
   xmlns:rdf="http://www.w3.org/1999/02/22-rdf-syntax-ns#"
   xmlns:svg="http://www.w3.org/2000/svg"
   xmlns="http://www.w3.org/2000/svg"
   xmlns:sodipodi="http://sodipodi.sourceforge.net/DTD/sodipodi-0.dtd"
   xmlns:inkscape="http://www.inkscape.org/namespaces/inkscape"
   width="1920"
   height="1200"
   id="svg2"
   version="1.1"
   inkscape:version="0.47 r22583"
   sodipodi:docname="background.svg"
   inkscape:export-filename="/home/rick/aptosid-art/ksplash themes/aptosid-apate/backbround.png"
   inkscape:export-xdpi="90"
   inkscape:export-ydpi="90">
  <defs
     id="defs4">
    <filter
       id="filter3814"
       inkscape:label="Ink bleed"
       inkscape:menu="Protrusions"
       inkscape:menu-tooltip="Inky splotches underneath the object"
       color-interpolation-filters="sRGB">
      <feGaussianBlur
         id="feGaussianBlur3816"
         result="result1"
         in="SourceGraphic"
         stdDeviation="4.2000000000000002" />
      <feTurbulence
         id="feTurbulence3818"
         result="result0"
         numOctaves="4"
         baseFrequency="0.042000000000000003" />
      <feDisplacementMap
         id="feDisplacementMap3820"
         in2="result0"
         result="result2"
         scale="42"
         yChannelSelector="G"
         xChannelSelector="R"
         in="result1" />
      <feColorMatrix
         id="feColorMatrix3822"
         values="2 0 0 0 0 0 2 0 0 0 0 0 2 0 0 0 0 0 0.7 0"
         result="result3" />
      <feGaussianBlur
         id="feGaussianBlur3824"
         result="result4"
         in="SourceGraphic"
         stdDeviation="42" />
      <feComposite
         id="feComposite3826"
         in2="result3"
         in="result4" />
    </filter>
  </defs>
  <sodipodi:namedview
     id="base"
     pagecolor="#1e72a0"
     bordercolor="#666666"
     borderopacity="1.0"
     inkscape:pageopacity="1"
     inkscape:pageshadow="2"
     inkscape:zoom="0.35"
     inkscape:cx="711.87105"
     inkscape:cy="746.10419"
     inkscape:document-units="px"
     inkscape:current-layer="layer1"
     showgrid="false"
     inkscape:window-width="1912"
     inkscape:window-height="1153"
     inkscape:window-x="0"
     inkscape:window-y="0"
     inkscape:window-maximized="1" />
  <metadata
     id="metadata7">
    <rdf:RDF>
      <cc:Work
         rdf:about="">
        <dc:format>image/svg+xml</dc:format>
        <dc:type
           rdf:resource="http://purl.org/dc/dcmitype/StillImage" />
        <dc:title />
      </cc:Work>
    </rdf:RDF>
  </metadata>
  <g
     inkscape:groupmode="layer"
     id="layer1"
     inkscape:label="Logo">
    <g
       style="fill:#ffffff;fill-opacity:1;display:inline"
       transform="translate(1365.2402,-442.71119)"
       id="aptosid"
       inkscape:label="aptosid">
      <text
         xml:space="preserve"
         style="font-size:144px;font-style:normal;font-variant:normal;font-weight:bold;font-stretch:normal;text-align:start;line-height:125%;letter-spacing:0px;word-spacing:0px;writing-mode:lr-tb;text-anchor:start;fill:#ffffff;fill-opacity:1;stroke:none;font-family:Dustismo;-inkscape-font-specification:Dustismo Bold"
         x="246.53732"
         y="1555.3855"
         id="text3113"
         sodipodi:linespacing="125%"
         inkscape:export-filename="logo-current.png"
         inkscape:export-xdpi="90"
         inkscape:export-ydpi="90"><tspan
           sodipodi:role="line"
           id="tspan3115"
           x="246.53732"
           y="1555.3855"
           dx="0 0 26.252148"><tspan
             dx="-0.98228282 -4.3535538 121.26881"
             style="font-size:144px;font-style:normal;font-variant:normal;font-weight:bold;font-stretch:normal;text-align:start;line-height:125%;writing-mode:lr-tb;text-anchor:start;fill:#ffffff;fill-opacity:1;stroke:none;font-family:Dustismo;-inkscape-font-specification:Dustismo Bold"
             id="tspan3117">to </tspan></tspan></text>
      <path
         sodipodi:nodetypes="ccccc"
         inkscape:connector-curvature="0"
         id="path4055"
         d="m 448.25844,1456.6341 9.895,9.894 -9.895,9.895 -9.894,-9.895 z"
         style="fill:#ffffff;fill-opacity:1;fill-rule:nonzero;stroke:none" />
      <path
         inkscape:export-ydpi="90"
         inkscape:export-xdpi="90"
         inkscape:export-filename="logo-current.png"
         sodipodi:nodetypes="cccccccccsccccscccscscs"
         inkscape:connector-curvature="0"
         id="path3127"
         d="m 207.94439,1485.6954 c -9.0469,10e-5 -16.51565,3.5156 -22.375,10.5 l 0,-9 -11.32858,0 0,83.875 -13.21875,0 0,11.5937 24.54733,0 0,-36.2812 c 5.85935,6.9844 13.3281,10.4687 22.375,10.4687 9.4687,0 17.54682,-3.5625 24.25,-10.6875 6.56243,-7.0313 9.84368,-15.2968 9.84375,-24.8125 -7e-5,-9.5155 -3.28132,-17.7968 -9.84375,-24.875 -6.70318,-7.1718 -14.7813,-10.7811 -24.25,-10.7812 z m 0,11.625 c 6.28121,0 11.62495,2.4531 16.03125,7.375 4.26557,4.7813 6.37494,10.3282 6.375,16.6562 -6e-5,6.2813 -2.15631,11.7969 -6.46875,16.5313 -4.45318,4.9219 -9.75004,7.375 -15.9375,7.375 -6.23441,0 -11.53128,-2.4531 -15.84375,-7.375 -4.12502,-4.6875 -6.18752,-10.2031 -6.1875,-16.5313 -2e-5,-6.3749 2.04685,-11.9218 6.125,-16.6562 4.31247,-4.9219 9.62497,-7.375 15.90625,-7.375 z"
         style="fill:#ffffff;fill-opacity:1;fill-rule:nonzero;stroke:none" />
      <path
         inkscape:export-ydpi="90"
         inkscape:export-xdpi="90"
         inkscape:export-filename="logo-current.png"
         sodipodi:nodetypes="ccccccssscccccsscccscscs"
         inkscape:connector-curvature="0"
         id="path3129"
         d="m 508.45717,1459.9767 0,11.5937 13.25,0 0,24.625 c -5.5313,-6.9844 -12.89068,-10.4999 -22.125,-10.5 -9.51566,10e-5 -17.90627,3.5626 -25.125,10.6875 -7.17188,7.1251 -10.75,15.4532 -10.75,24.9687 0,9.5157 3.54687,17.8282 10.625,24.9063 7.0781,7.0781 15.35935,10.5937 24.875,10.5937 9.14058,0 16.64057,-3.4843 22.5,-10.4687 l 0,9 11.35225,0 0,-95.4062 z m -10.0625,37.3437 c 0.39002,-0.019 0.79199,0 1.1875,0 6.2812,0 11.53119,2.4531 15.75,7.375 4.03119,4.7344 6.03119,10.2813 6.03125,16.6562 -6e-5,6.3282 -2.07819,11.8594 -6.25,16.5938 -4.35943,4.875 -9.67192,7.3125 -15.90625,7.3125 -6.32815,0 -11.89065,-2.375 -16.71875,-7.1563 -4.78127,-4.8281 -7.18751,-10.4218 -7.1875,-16.75 -1e-5,-6.328 2.48435,-11.8906 7.40625,-16.7187 4.61423,-4.5704 9.83725,-7.0269 15.6875,-7.3125 z"
         style="fill:#ffffff;fill-opacity:1;fill-rule:nonzero;stroke:none" />
      <path
         inkscape:export-ydpi="90"
         inkscape:export-xdpi="90"
         inkscape:export-filename="logo-current.png"
         sodipodi:nodetypes="ccscccsscscccsssscsaczsccc"
         d="m 414.17377,1509.6121 c -0.2813,-4.3126 -2.7422,-7.5235 -7.3829,-9.6328 -3.6093,-1.6407 -7.8749,-2.461 -12.7968,-2.461 -3.5625,0 -6.9844,0.6563 -10.2657,1.9688 -4.3124,1.6875 -6.4687,4.0078 -6.4687,6.9609 0,3.1406 2.4141,5.5547 7.2422,7.2422 3.0469,1.0781 7.0473,1.1402 14.8125,2.1078 15.0809,1.8793 25.2899,7.7759 25.5469,20.3922 0.1345,6.608 -3.2813,11.8359 -9.8438,15.6797 -5.4843,3.2343 -11.8125,4.8515 -18.9844,4.8515 -7.8749,0 -14.578,-1.5938 -20.1093,-4.7812 -6.4687,-3.7032 -10.2187,-9.1641 -11.25,-16.3828 l 11.3203,-2.3906 c 1.1719,5.1093 4.4297,8.6015 9.1524,10.1015 4.7226,1.5 8.0365,1.9757 11.7382,1.875 4.5938,-0.125 9.0781,-1.3672 11.6524,-2.836 2.7293,-1.5573 4.5495,-3.0879 4.6523,-5.6952 0.1829,-4.6371 -3.9067,-7.2691 -12.2504,-8.7691 -6.0938,-0.75 -12.519,-1.2319 -18.6168,-2.6919 -4.9423,-1.1833 -9.4489,-3.0019 -12.5859,-6.539 -2.874,-3.2406 -4.5703,-6.586 -4.5703,-12.1641 0,-5.6719 2.4141,-10.1484 7.8164,-14.1328 5.4024,-3.9844 12.7852,-6.3281 21.5039,-6.3281 7.8282,0 14.4844,1.5937 19.9688,4.7812 6.4218,3.75 10.1484,9.2109 11.1796,16.3828 l -11.4609,2.461"
         style="font-size:144px;font-style:normal;font-variant:normal;font-weight:bold;font-stretch:normal;text-align:start;line-height:125%;letter-spacing:0px;word-spacing:0px;writing-mode:lr-tb;text-anchor:start;fill:#ffffff;fill-opacity:1;stroke:none;font-family:Dustismo;-inkscape-font-specification:Dustismo Bold"
         id="path4040"
         inkscape:connector-curvature="0" />
      <path
         style="font-size:144px;font-style:normal;font-variant:normal;font-weight:bold;font-stretch:normal;text-align:center;line-height:125%;letter-spacing:0px;word-spacing:0px;writing-mode:lr-tb;text-anchor:middle;fill:#ffffff;fill-opacity:1;stroke:none;font-family:Dustismo;-inkscape-font-specification:Dustismo Bold"
         d="m 126.30444,1485.6954 c -9.51565,10e-5 -17.87502,3.5626 -25.09375,10.6875 -7.17188,7.1251 -10.78126,15.4219 -10.78125,24.9375 -1e-5,9.5156 3.54687,17.8281 10.625,24.9062 7.07811,7.0781 15.39059,10.625 24.90625,10.625 9.11103,0 16.58644,-3.4982 22.4375,-10.4375 l 0,8.9375 15.99556,0 0,-11.5937 -4.65625,0 0,-55.8125 -11.27681,0 0,8.2187 c -5.53131,-6.9843 -12.92192,-10.4686 -22.15625,-10.4687 z m 0,11.5937 c 6.28121,0 11.5312,2.4532 15.75,7.375 4.03119,4.7344 6.03118,10.2813 6.03125,16.6563 -7e-5,6.3281 -2.07818,11.8594 -6.25,16.5937 -4.35942,4.875 -9.64067,7.3125 -15.875,7.3125 -6.32816,0 -11.9219,-2.3749 -16.75,-7.1562 -4.78126,-4.8281 -7.15627,-10.4219 -7.15625,-16.75 -2e-5,-6.3281 2.45311,-11.8906 7.375,-16.7188 4.92185,-4.875 10.54684,-7.3125 16.875,-7.3125 z"
         id="path3962"
         inkscape:connector-curvature="0"
         sodipodi:nodetypes="ccssscccccccccscccscscs" />
      <path
         sodipodi:nodetypes="ccccccc"
         d="m 433.60678,1487.1824 20.32031,0 0,68.2031 -11.60156,0 0,-56.6016 -8.71875,0 0,-11.6015"
         style="font-size:144px;font-style:normal;font-variant:normal;font-weight:bold;font-stretch:normal;text-align:start;line-height:125%;letter-spacing:0px;word-spacing:0px;writing-mode:lr-tb;text-anchor:start;fill:#ffffff;fill-opacity:1;stroke:none;font-family:Dustismo;-inkscape-font-specification:Dustismo Bold"
         id="path4336"
         inkscape:connector-curvature="0" />
    </g>
    <path
       style="color:#000000;fill:#ffffff;fill-opacity:1;stroke:none;stroke-width:7;marker:none;visibility:visible;display:inline;overflow:visible"
       d="m 1352.8521,993.89256 c -10.9794,0.1962 -21.1295,13.31154 -21.1295,13.31154 -16.7337,-13.81019 -16.6288,18.5305 -16.6288,18.5305 -15.5672,7.1845 -11.5367,32.6661 -11.5367,32.6661 l 4.8597,1.0776 c -3.9016,7.643 -6.1063,16.2704 -6.1063,25.3976 0,2.6947 0.1999,5.3285 0.5704,7.9236 -8.2337,1.3948 -24.0791,5.0505 -21.3407,12.1705 l -1.4579,2.937 c 0,0 -7.3435,2.9378 -5.874,7.7122 0.8813,2.8631 7.9477,8.6032 13.4806,12.7622 -2.0178,0.7966 -8.4017,3.6802 -6.8248,8.008 1.865,5.1159 25.63,18.8898 25.63,18.8898 l -11.6423,-17.7065 c 0,0 20.8795,-2.4599 28.2289,-9.149 0.9302,0.7644 1.8742,1.5121 2.8525,2.2186 -4.0452,1.9235 -6.7091,4.4634 -5.4515,7.7333 l -1.479,2.937 c 0,0 -7.3435,2.9379 -5.874,7.7123 1.4696,4.7743 20.1999,17.6219 20.1997,17.6219 l -9.1912,-16.5232 c 0,0 10.3836,-1.4373 17.5585,-5.1556 -0.7536,10.2714 7.5581,22.8525 21.3408,30.7856 13.3526,7.6856 27.8697,8.6893 36.4905,3.4653 -4.2853,-0.6473 -8.9854,-2.2692 -13.5228,-4.881 -12.1003,-6.9646 -18.6471,-18.2982 -14.6216,-25.2919 4.012,-6.9704 17.0288,-7.0006 29.0952,-0.1056 -3.6419,-4.7136 -8.6605,-9.1102 -14.7483,-12.6143 -0.2399,-0.1381 -0.4779,-0.2677 -0.7184,-0.4015 3.4391,-1.6479 6.6809,-3.6334 9.6984,-5.8951 0.7297,3.3512 2.0032,6.8254 3.8667,10.2055 2.4611,4.4644 5.5874,8.1549 8.9588,10.8606 -4.8417,-8.8479 -4.6678,-18.2904 0.4437,-21.1083 5.1287,-2.8274 13.2797,2.0928 18.1714,10.9661 1.8344,3.3275 2.9473,6.7493 3.3595,9.8675 2.6914,-4.2619 3.2519,-10.5979 1.5848,-17.3262 2.8245,-1.7869 17.1274,-10.9982 18.5939,-15.3188 1.6205,-4.7744 -6.4868,-7.7122 -6.4868,-7.7122 l -1.6059,-2.937 c 1.5291,-3.6044 -2.2082,-6.3208 -7.4375,-8.3039 2.8249,-2.1587 5.2406,-4.3143 5.6839,-5.6204 1.1786,-3.4756 -4.733,-5.5993 -4.733,-5.5993 l -1.1622,-2.1341 c 2.1855,-5.1515 -10.371,-7.8046 -17.0092,-8.8321 -3.888,-27.6077 -28.0022,-48.8935 -57.0283,-48.8935 -13.9363,0 -26.742,4.8992 -36.723,13.058 1.8643,-5.2986 3.1695,-9.6139 3.1695,-9.6139 6.9004,1.5188 13.7975,-16.7345 13.7975,-16.7345 5.9806,1.3163 29.222,-6.1064 29.222,-6.1064 0,0 7.6721,7.9413 11.3887,2.0073 3.7174,-5.9327 11.3888,0.1056 11.3888,0.1056 -17.7261,-24.63955 -22.5874,-6.9093 -22.5874,-6.9093 l -4.923,-3.97236 c -3.7412,-4.5387 -7.8192,-6.15625 -11.7903,-6.08528 z m 0.1689,2.62005 c 7.6277,-0.239 10.4169,6.99399 10.4169,6.99389 -3.4998,2.238 -26.6864,1.6481 -26.6864,1.6481 6.9561,-6.35294 12.2742,-8.51679 16.2695,-8.64199 z m -26.0948,10.69149 c 1.6693,-0.052 2.8525,0.5705 2.8525,0.5705 l -8.4518,12.8044 c -2.0404,2.214 -0.8749,4.7245 0.4226,6.4234 1.014,0.8085 1.8167,1.5612 1.8594,1.965 0,0 -0.9585,-0.7856 -1.8594,-1.965 -1.8855,-1.5036 -4.5216,-3.1905 -4.5216,-3.1905 1.5922,-13.9606 6.5117,-16.5085 9.6983,-16.6078 z m -11.5155,21.4675 c -3.7376,3.3137 -1.141,22.2913 -1.141,22.2916 l -8.3672,3.8033 c -1.1889,-16.8046 9.5082,-26.0949 9.5082,-26.0949 z m 44.4986,7.184 c 27.6136,0 49.8654,21.9523 49.8655,49.0203 0,0.3909 -0.012,0.7734 -0.021,1.1621 -13.553,20.0375 -49.6228,7.4965 -70.5723,-7.2262 -19.8801,-13.9713 -27.3238,1.1498 -29.1586,6.1698 -10e-5,-0.036 0,-0.07 0,-0.1057 0,-27.068 22.2729,-49.0203 49.8866,-49.0203 z m -6.0431,31.6519 27.0246,20.6224 c 6.0237,-10.2219 -27.0246,-20.6224 -27.0246,-20.6224 z m 45.365,1.6692 c -4.6845,-0.1499 -6.4868,19.3546 -6.4868,19.3546 l 8.0292,-18.6151 c -0.5475,-0.479 -1.0578,-0.7239 -1.5424,-0.7395 z m 17.7064,9.2336 c 9.4698,-0.038 15.5302,6.6558 15.5302,6.6558 l -0.1479,3.3385 c -3.0944,0 -17.9811,-6.1487 -17.9811,-6.1487 l -0.4438,-3.6132 c 1.0499,-0.1629 2.063,-0.2285 3.0426,-0.2324 z m -85.1938,10.5647 c 3.5623,-0.088 8.5997,3.3807 8.5997,3.3807 44.2627,17.6522 67.6986,0.6128 67.6986,0.6128 -6.5093,16.4338 -70.3002,13.3925 -74.2066,12.7833 -3.9063,-0.6092 -7.1499,-9.1433 -5.1977,-14.6216 0.5493,-1.5408 1.712,-2.1205 3.106,-2.1552 z m 102.9214,0.6339 c 0,0 6.7896,1.7352 2.9581,2.937 l -2.9581,-2.937 z m -17.4952,1.1832 c 5.7452,2.6113 13.8187,3.6132 13.8187,3.6132 l -1.965,3.2117 c -4.6394,-1.2388 -9.2945,-2.0057 -12.4664,-2.4511 0.2685,-1.4375 0.457,-2.9007 0.6127,-4.3738 z m -114.437,3.9301 c 1.2207,0.01 2.474,0.1143 3.7823,0.3381 l -0.5495,4.9443 c 0,0 -18.5415,8.4518 -22.3971,8.4518 l -0.1903,-4.5851 c 0,0 7.5552,-9.2011 19.3546,-9.1491 z m 115.4936,2.5567 c 13.0144,-0.052 21.3407,9.149 21.3407,9.149 l -0.2113,4.5851 c -4.2534,0 -24.7004,-8.4306 -24.7004,-8.4306 l -0.6127,-4.9654 c 1.4429,-0.2238 2.8373,-0.3327 4.1837,-0.3381 z m -12.4242,5.219 c -7.2783,9.3637 -53.1823,23.6846 -54.3026,24.2354 -1.1204,0.5508 -8.3884,-2.7578 -8.3884,-6.6135 0,-3.8556 3.9089,-6.6135 3.9089,-6.6135 9.5169,4.9572 58.7821,-11.0084 58.7821,-11.0084 z m -98.3786,5.7472 c 0.7795,1.6906 1.6607,3.3257 2.5989,4.9231 -10.3737,2.0137 -22.6146,5.7242 -19.8405,11.8114 l -0.1902,0.3169 -4.7752,-8.5785 c 0,0 16.376,-2.2679 22.207,-8.4729 z m 104.4216,1.1198 c 0.047,0.069 0.078,0.1431 0.1269,0.2113 -0.065,-0.025 -0.1253,-0.06 -0.1902,-0.084 0.021,-0.042 0.042,-0.084 0.064,-0.1268 z m -131.2137,0.7395 -3.6766,4.0358 c -4.7744,-1.6524 3.6766,-4.0358 3.6766,-4.0358 z m 161.9782,2.5778 c 0,0 9.3014,2.3833 4.0358,4.0358 l -4.0358,-4.0358 z m -125.551,1.3101 c 1.5493,0.01 3.1569,0.1194 4.8174,0.3592 l -0.6972,5.3246 c 0,0 -23.5246,9.0434 -28.4192,9.0434 l -0.2324,-4.9232 c 0,0 9.5541,-9.86 24.5314,-9.804 z m 81.9188,0.021 c -3.21,8.4443 4.7752,31.1025 4.7752,31.1025 0,0 -4.1507,-5.9033 -7.2263,-16.1851 -3.0756,-10.2819 2.4511,-14.9174 2.4511,-14.9174 z m 21.4252,1.0776 c 7.6681,3.0114 17.1359,4.1836 17.1359,4.1836 l -6.698,13.2693 c -0.7595,-2.7354 -1.8548,-5.5112 -3.3596,-8.2405 -1.9919,-3.6135 -4.4346,-6.7216 -7.0783,-9.2124 z m -78.7494,13.0368 c 1.2206,0.01 2.474,0.1143 3.7821,0.3381 l -0.5494,4.9654 c 0,0 -18.5415,8.4307 -22.3971,8.4307 l -0.1691,-4.5851 c 0,0 7.5339,-9.2011 19.3335,-9.1491 z m 82.1089,0.6551 c 0.1752,-0.01 0.3459,-0 0.5282,0 0.6734,0.012 1.3856,0.1201 2.1342,0.3592 3.0174,6.7973 2.0073,13.2058 2.0073,13.2058 0,0 -1.3333,-5.6808 -3.8667,-8.5574 -2.5335,-2.8765 -4.902,-3.6554 -4.902,-3.6554 -0.3161,0.2404 1.4714,-1.2142 4.099,-1.3522 z m -134.7423,1.7114 -4.6485,4.3104 c -6.06,-1.7713 4.6485,-4.3104 4.6485,-4.3104 z m 86.6306,8.0292 c 0.2499,-0.01 0.5078,-0.01 0.7818,0 8.7712,0.3248 11.0507,4.564 11.0507,4.564 0,0 -7.1523,-1.6375 -11.0507,-0.3381 -3.8983,1.2995 -5.1977,3.5709 -5.1977,3.5709 0.3145,0.6294 -3.3299,-7.5783 4.4159,-7.7968 z m -31.3771,1.627 c 4.6174,18.1491 42.8715,40.9488 42.8715,40.9488 0,0 -13.1744,-2.7047 -29.6657,-13.9031 -16.4912,-11.1984 -13.2058,-27.0457 -13.2058,-27.0457 z m -24.7215,3.3807 -3.6765,4.0357 c -4.7745,-1.6524 3.6765,-4.0357 3.6765,-4.0357 z"
       id="outline"
       inkscape:connector-curvature="0" />
  </g>
</svg>
