<?xml version="1.0" encoding="UTF-8" standalone="no"?>
<!-- Created with Inkscape (http://www.inkscape.org/) -->

<svg
   xmlns:i="http://ns.adobe.com/AdobeIllustrator/10.0/"
   xmlns:dc="http://purl.org/dc/elements/1.1/"
   xmlns:cc="http://creativecommons.org/ns#"
   xmlns:rdf="http://www.w3.org/1999/02/22-rdf-syntax-ns#"
   xmlns:svg="http://www.w3.org/2000/svg"
   xmlns="http://www.w3.org/2000/svg"
   xmlns:xlink="http://www.w3.org/1999/xlink"
   xmlns:sodipodi="http://sodipodi.sourceforge.net/DTD/sodipodi-0.dtd"
   xmlns:inkscape="http://www.inkscape.org/namespaces/inkscape"
   width="1920"
   height="1200"
   id="svg2"
   version="1.1"
   inkscape:version="0.48+devel r"
   sodipodi:docname="aptosid-apate-wide.svg"
   inkscape:export-filename="aptosid-apate-wide.png"
   inkscape:export-xdpi="90"
   inkscape:export-ydpi="90">
  <defs
     id="defs4">
    <linearGradient
       id="linearGradient5941">
      <stop
         style="stop-color:#ffffff;stop-opacity:0;"
         offset="0"
         id="stop5943" />
      <stop
         style="stop-color:#ffffff;stop-opacity:0.40000001;"
         offset="1"
         id="stop5945" />
    </linearGradient>
    <pattern
       inkscape:stockid="Stripes 1:1"
       id="Strips1_1"
       patternTransform="matrix(7.592566,6.5079137,-6.5079137,7.592566,0,0)"
       height="1"
       width="2"
       patternUnits="userSpaceOnUse"
       inkscape:collect="always">
      <rect
         id="rect5222"
         height="2"
         width="1"
         y="-0.5"
         x="0"
         style="fill:black;stroke:none" />
    </pattern>
    <linearGradient
       id="linearGradient4219">
      <stop
         style="stop-color:#ffffff;stop-opacity:1;"
         offset="0"
         id="stop4221" />
      <stop
         id="stop4229"
         offset="0.38"
         style="stop-color:#666666;stop-opacity:1;" />
      <stop
         id="stop4227"
         offset="0.38"
         style="stop-color:#333333;stop-opacity:1;" />
      <stop
         style="stop-color:#000000;stop-opacity:1;"
         offset="1"
         id="stop4223" />
    </linearGradient>
    <linearGradient
       id="linearGradient3980">
      <stop
         style="stop-color:#af0000;stop-opacity:1;"
         offset="0"
         id="stop3982" />
      <stop
         style="stop-color:#4b0000;stop-opacity:1;"
         offset="1"
         id="stop3984" />
    </linearGradient>
    <filter
       id="filter6636"
       inkscape:collect="always"
       color-interpolation-filters="sRGB">
      <feGaussianBlur
         id="feGaussianBlur6638"
         stdDeviation="1.0866039"
         inkscape:collect="always" />
    </filter>
    <radialGradient
       inkscape:collect="always"
       xlink:href="#linearGradient3980"
       id="radialGradient3986"
       cx="961.25"
       cy="263.23776"
       fx="961.25"
       fy="263.23776"
       r="961.25"
       gradientTransform="matrix(1.4993859,0,0,0.96879061,-480.03469,14.078935)"
       gradientUnits="userSpaceOnUse" />
    <clipPath
       clipPathUnits="userSpaceOnUse"
       id="clipPath4107">
      <path
         sodipodi:nodetypes="cccc"
         inkscape:connector-curvature="0"
         id="path4109"
         d="m 665.09458,1103.5858 231.79909,0 0,-196.328 z"
         style="fill:#00ff00;fill-opacity:0.50196078;stroke:none" />
    </clipPath>
    <clipPath
       clipPathUnits="userSpaceOnUse"
       id="clipPath4123">
      <path
         style="fill:#00ff00;fill-opacity:0.50196078;stroke:none"
         d="m 807.09458,1103.5858 231.79912,0 0,-196.328 z"
         id="path4125"
         inkscape:connector-curvature="0"
         sodipodi:nodetypes="cccc" />
    </clipPath>
    <clipPath
       clipPathUnits="userSpaceOnUse"
       id="clipPath4127">
      <path
         sodipodi:nodetypes="cccc"
         inkscape:connector-curvature="0"
         id="path4129"
         d="m 861.09458,1103.5858 231.79912,0 0,-196.328 z"
         style="fill:#00ff00;fill-opacity:0.50196078;stroke:none" />
    </clipPath>
    <clipPath
       clipPathUnits="userSpaceOnUse"
       id="clipPath4131">
      <path
         style="fill:#00ff00;fill-opacity:0.50196078;stroke:none"
         d="m 920.09458,1103.5858 231.79912,0 0,-196.328 z"
         id="path4133"
         inkscape:connector-curvature="0"
         sodipodi:nodetypes="cccc" />
    </clipPath>
    <clipPath
       clipPathUnits="userSpaceOnUse"
       id="clipPath4135">
      <path
         sodipodi:nodetypes="cccc"
         inkscape:connector-curvature="0"
         id="path4137"
         d="m 994.0946,1103.5858 231.7991,0 0,-196.328 z"
         style="fill:#00ff00;fill-opacity:0.50196078;stroke:none" />
    </clipPath>
    <clipPath
       clipPathUnits="userSpaceOnUse"
       id="clipPath4139">
      <path
         style="fill:#00ff00;fill-opacity:0.50196078;stroke:none"
         d="m 1046.0946,1103.5858 231.7991,0 0,-196.328 z"
         id="path4141"
         inkscape:connector-curvature="0"
         sodipodi:nodetypes="cccc" />
    </clipPath>
    <clipPath
       clipPathUnits="userSpaceOnUse"
       id="clipPath4143">
      <path
         sodipodi:nodetypes="cccc"
         inkscape:connector-curvature="0"
         id="path4145"
         d="m 1100.0946,1103.5858 231.7991,0 0,-196.328 z"
         style="fill:#00ff00;fill-opacity:0.50196078;stroke:none" />
    </clipPath>
    <clipPath
       clipPathUnits="userSpaceOnUse"
       id="clipPath4155">
      <path
         style="fill:#00ff00;fill-opacity:0.50196078;stroke:none"
         d="m 1303.0946,1103.5858 231.7991,0 0,-196.328 z"
         id="path4157"
         inkscape:connector-curvature="0"
         sodipodi:nodetypes="cccc" />
    </clipPath>
    <clipPath
       clipPathUnits="userSpaceOnUse"
       id="clipPath4159">
      <path
         sodipodi:nodetypes="cccc"
         inkscape:connector-curvature="0"
         id="path4161"
         d="m 1395.0946,1103.5858 231.7991,0 0,-196.328 z"
         style="fill:#00ff00;fill-opacity:0.50196078;stroke:none" />
    </clipPath>
    <clipPath
       clipPathUnits="userSpaceOnUse"
       id="clipPath4163">
      <path
         style="fill:#00ff00;fill-opacity:0.50196078;stroke:none"
         d="m 1478.0946,1103.5858 231.7991,0 0,-196.328 z"
         id="path4165"
         inkscape:connector-curvature="0"
         sodipodi:nodetypes="cccc" />
    </clipPath>
    <clipPath
       clipPathUnits="userSpaceOnUse"
       id="clipPath4167">
      <path
         sodipodi:nodetypes="cccc"
         inkscape:connector-curvature="0"
         id="path4169"
         d="m 1566.0946,1103.5858 231.7991,0 0,-196.328 z"
         style="fill:#00ff00;fill-opacity:0.50196078;stroke:none" />
    </clipPath>
    <clipPath
       clipPathUnits="userSpaceOnUse"
       id="clipPath4171">
      <path
         style="fill:#00ff00;fill-opacity:0.50196078;stroke:none"
         d="m 1662.0946,1103.5858 231.7991,0 0,-196.328 z"
         id="path4173"
         inkscape:connector-curvature="0"
         sodipodi:nodetypes="cccc" />
    </clipPath>
    <radialGradient
       r="515.50891"
       fy="677.5401"
       fx="0.74603319"
       cy="677.5401"
       cx="0.74603319"
       gradientTransform="matrix(1,0,0,0.72793058,0,184.33794)"
       gradientUnits="userSpaceOnUse"
       id="radialGradient3641"
       xlink:href="#linearGradient3629"
       inkscape:collect="always" />
    <radialGradient
       gradientUnits="userSpaceOnUse"
       gradientTransform="matrix(1,0,0,0.72793058,0,184.33794)"
       r="515.50891"
       fy="677.5401"
       fx="0.74603319"
       cy="677.5401"
       cx="0.74603319"
       id="radialGradient3637"
       xlink:href="#linearGradient3629"
       inkscape:collect="always" />
    <linearGradient
       gradientTransform="translate(-447.90389,-0.88802719)"
       gradientUnits="userSpaceOnUse"
       y2="224.39597"
       x2="448.50793"
       y1="224.39597"
       x1="-1.4920664"
       id="linearGradient3593"
       xlink:href="#linearGradient3587"
       inkscape:collect="always" />
    <inkscape:perspective
       id="perspective7"
       inkscape:persp3d-origin="185.08711 : 132.29655 : 1"
       inkscape:vp_z="370.17422 : 198.44482 : 1"
       inkscape:vp_y="0 : 1000 : 0"
       inkscape:vp_x="0 : 198.44482 : 1"
       sodipodi:type="inkscape:persp3d" />
    <linearGradient
       id="linearGradient3587"
       inkscape:collect="always">
      <stop
         id="stop3589"
         offset="0"
         style="stop-color:#000000;stop-opacity:1;" />
      <stop
         id="stop3591"
         offset="1"
         style="stop-color:#000000;stop-opacity:0;" />
    </linearGradient>
    <linearGradient
       id="linearGradient3629">
      <stop
         id="stop3631"
         offset="0"
         style="stop-color:#ffffff;stop-opacity:1;" />
      <stop
         id="stop3633"
         offset="1"
         style="stop-color:#ffffff;stop-opacity:0;" />
    </linearGradient>
    <filter
       inkscape:collect="always"
       id="filter5937">
      <feGaussianBlur
         inkscape:collect="always"
         stdDeviation="4.1625"
         id="feGaussianBlur5939" />
    </filter>
    <linearGradient
       inkscape:collect="always"
       xlink:href="#linearGradient5941"
       id="linearGradient5947"
       x1="1109.9078"
       y1="1477.2035"
       x2="1109.9078"
       y2="1557.9581"
       gradientUnits="userSpaceOnUse" />
  </defs>
  <sodipodi:namedview
     id="base"
     pagecolor="#ffffff"
     bordercolor="#666666"
     borderopacity="1.0"
     inkscape:pageopacity="0.0"
     inkscape:pageshadow="2"
     inkscape:zoom="0.5"
     inkscape:cx="1178.2997"
     inkscape:cy="380.68842"
     inkscape:document-units="px"
     inkscape:current-layer="layer1"
     showgrid="false"
     inkscape:window-width="1600"
     inkscape:window-height="1145"
     inkscape:window-x="-4"
     inkscape:window-y="-3"
     inkscape:window-maximized="1" />
  <metadata
     id="metadata7">
    <rdf:RDF>
      <cc:Work
         rdf:about="">
        <dc:format>image/svg+xml</dc:format>
        <dc:type
           rdf:resource="http://purl.org/dc/dcmitype/StillImage" />
        <dc:title></dc:title>
      </cc:Work>
    </rdf:RDF>
  </metadata>
  <g
     inkscape:label="Background"
     inkscape:groupmode="layer"
     id="layer1"
     transform="translate(0,147.63782)">
    <rect
       style="fill:url(#radialGradient3986);fill-opacity:1;stroke:#000000;stroke-width:2.5;stroke-linecap:square;stroke-linejoin:round;stroke-miterlimit:4;stroke-opacity:1;stroke-dasharray:none"
       id="rect3978"
       width="1920"
       height="1200"
       x="1.25"
       y="-148.88782" />
    <rect
       style="fill:url(#Strips1_1);fill-opacity:1;stroke:none;opacity:0.03;filter:url(#filter5937)"
       id="rect4501"
       width="2018"
       height="1312"
       x="-42"
       y="-50"
       transform="translate(0,-147.63782)" />
    <path
       style="opacity:0.1;color:#000000;fill:#000000;fill-opacity:1;stroke:none;stroke-width:7;marker:none;visibility:visible;display:inline;overflow:visible"
       d="m 837.52908,-371.28613 c 0,0 35.39931,132.2289 0.0801,287.032269 C 795.48491,88.514362 695.13759,255.50408 566.94693,360.3114 669.12293,173.59151 665.4529,-25.677513 557.5835,-85.145261 449.35103,-144.81258 277.33815,-40.979139 174.1074,146.27723 135.39412,216.4982 111.9082,288.71064 103.20852,354.51464 46.411041,264.57398 34.584312,130.86328 72.441058,-21.160725 91.144704,-88.921556 114.25957,-147.50088 146.01599,-205.09755 c 42.03632,-76.25746 93.58353,-141.84982 149.37636,-194.41382 z m 1111.42862,190.86326 7.4207,411.42154 c 15.9032,216.76061 -159.5019,482.26479 -450.363,649.68024 -281.7855,162.19209 -588.14498,183.37369 -770.07178,73.1279 90.43399,-13.6592 189.62067,-47.8872 285.37628,-103.00417 C 1276.6763,703.8248 1414.8365,464.64921 1329.8852,317.05777 1245.2179,169.95964 970.51978,169.32089 715.87709,314.8287 792.73507,215.35712 903.16399,129.92442 1027.1178,48.624607 1142.0847,-26.780807 1364.981,-143.86174 1783.7202,-176.99932 z M 747.53617,-422.25224 c 67.74029,178.20476 -100.7731,656.36738 -100.7731,656.36738 0,0 107.3913,-123.16565 152.4978,-341.56007 45.80984,-221.7998 -51.7247,-314.80731 -51.7247,-314.80731 z m -523.04169,311.68581 c -3.69715,-0.19041 -7.29985,-0.10028 -11.14736,0 -14.2097,0.26061 -29.2395,2.53592 -45.03755,7.58063 -63.67717,143.446197 -59.33075,271.61698 -59.33075,271.61698 0,0 45.10714,-112.813023 98.57057,-173.5191433 53.4654,-60.7031157 103.44835,-77.1408467 103.44835,-77.1408467 6.67115,5.072821 -31.05149,-25.6247 -86.50326,-28.53762 z M 1239.8133,94.994717 c -77.6302,-1.56772 -179.447,27.104883 -249.70527,96.314973 0,0 150.93657,-34.55697 233.20717,-7.13539 82.2658,27.4236 109.6896,75.35798 109.6896,75.35798 -6.6392,13.28314 70.272,-159.927023 -93.1915,-164.537563 z m 662.1631,34.334403 c -97.4441,383.00781 -904.73385,864.15759 -904.73385,864.15759 0,0 314.02515,-11.0793 626.04585,-293.40307 311.9353,-282.24646 278.688,-570.75452 278.688,-570.75452 z"
       id="outline-3"
       inkscape:connector-curvature="0"
       sodipodi:nodetypes="cccsccccccccsccscsccccscccccccccccccccsc" />
  </g>
  <g
     inkscape:groupmode="layer"
     id="layer2"
     inkscape:label="Text"
     sodipodi:insensitive="true">
    <g
       i:rgbTrio="#4F008000FFFF"
       i:dimmedPercent="50"
       i:layer="yes"
       id="Layer_1"
       transform="matrix(7.3488995,0,0,7.3488995,382.93745,662.40022)"
       style="opacity:0.3;fill:#ffffff;fill-opacity:0.09803922;stroke:#ffffff;stroke-width:0.27214959;stroke-miterlimit:4;stroke-opacity:0.19607843;stroke-dasharray:none">
		<g
   id="g4449"
   style="fill:#ffffff;fill-opacity:0.09803922;stroke:#ffffff;stroke-width:0.27214959;stroke-miterlimit:4;stroke-opacity:0.19607843;stroke-dasharray:none">
			
			
			
			<path
   id="path4457"
   d="m 45.172,1.399 c 0.959,0.172 2.072,0.304 1.916,0.533 1.049,-0.23 1.287,-0.442 -1.916,-0.533"
   i:knockout="Off"
   inkscape:connector-curvature="0"
   style="fill:#ffffff;fill-opacity:0.09803922;stroke:#ffffff;stroke-width:0.27214959;stroke-miterlimit:4;stroke-opacity:0.19607843;stroke-dasharray:none" />

			<path
   id="path4459"
   d="M 47.088,1.932 46.41,2.072 47.041,2.016 47.088,1.932"
   i:knockout="Off"
   inkscape:connector-curvature="0"
   style="fill:#ffffff;fill-opacity:0.09803922;stroke:#ffffff;stroke-width:0.27214959;stroke-miterlimit:4;stroke-opacity:0.19607843;stroke-dasharray:none" />

			<path
   id="path4461"
   d="m 76.992,46.856 c 0.107,2.906 -0.85,4.316 -1.713,6.812 l -1.553,0.776 c -1.271,2.468 0.123,1.567 -0.787,3.53 -1.984,1.764 -6.021,5.52 -7.313,5.863 -0.943,-0.021 0.639,-1.113 0.846,-1.541 -2.656,1.824 -2.131,2.738 -6.193,3.846 L 60.16,65.878 C 50.142,70.591 36.226,61.251 36.409,48.507 c -0.107,0.809 -0.304,0.607 -0.526,0.934 -0.517,-6.557 3.028,-13.143 9.007,-15.832 5.848,-2.895 12.704,-1.707 16.893,2.197 -2.301,-3.014 -6.881,-6.209 -12.309,-5.91 -5.317,0.084 -10.291,3.463 -11.951,7.131 -2.724,1.715 -3.04,6.611 -4.227,7.507 -1.597,11.737 3.004,16.808 10.787,22.773 1.225,0.826 0.345,0.951 0.511,1.58 -2.586,-1.211 -4.954,-3.039 -6.901,-5.277 1.033,1.512 2.148,2.982 3.589,4.137 -2.438,-0.826 -5.695,-5.908 -6.646,-6.115 4.203,7.525 17.052,13.197 23.78,10.383 -3.113,0.115 -7.068,0.064 -10.566,-1.229 -1.469,-0.756 -3.467,-2.322 -3.11,-2.615 9.182,3.43 18.667,2.598 26.612,-3.771 2.021,-1.574 4.229,-4.252 4.867,-4.289 -0.961,1.445 0.164,0.695 -0.574,1.971 2.014,-3.248 -0.875,-1.322 2.082,-5.609 l 1.092,1.504 c -0.406,-2.696 3.348,-5.97 2.967,-10.234 0.861,-1.304 0.961,1.403 0.047,4.403 1.268,-3.328 0.334,-3.863 0.66,-6.609 0.352,0.923 0.814,1.904 1.051,2.878 -0.826,-3.216 0.848,-5.416 1.262,-7.285 -0.408,-0.181 -1.275,1.422 -1.473,-2.377 0.029,-1.65 0.459,-0.865 0.625,-1.271 -0.324,-0.186 -1.174,-1.451 -1.691,-3.877 0.375,-0.57 1.002,1.478 1.512,1.562 -0.328,-1.929 -0.893,-3.4 -0.916,-4.88 -1.49,-3.114 -0.527,0.415 -1.736,-1.337 -1.586,-4.947 1.316,-1.148 1.512,-3.396 2.404,3.483 3.775,8.881 4.404,11.117 -0.48,-2.726 -1.256,-5.367 -2.203,-7.922 0.73,0.307 -1.176,-5.609 0.949,-1.691 C 83.519,18.706 76.074,10.902 69.225,7.24 70.063,8.007 71.121,8.97 70.741,9.121 67.335,7.093 67.934,6.935 67.446,6.078 64.671,4.949 64.489,6.169 62.651,6.08 57.421,3.306 56.413,3.601 51.6,1.863 l 0.219,1.023 c -3.465,-1.154 -4.037,0.438 -7.782,0.004 -0.228,-0.178 1.2,-0.644 2.375,-0.815 -3.35,0.442 -3.193,-0.66 -6.471,0.122 0.808,-0.567 1.662,-0.942 2.524,-1.424 -2.732,0.166 -6.522,1.59 -5.352,0.295 -4.456,1.988 -12.37,4.779 -16.811,8.943 l -0.14,-0.933 c -2.035,2.443 -8.874,7.296 -9.419,10.46 l -0.544,0.127 c -1.059,1.793 -1.744,3.825 -2.584,5.67 -1.385,2.36 -2.03,0.908 -1.833,1.278 -2.724,5.523 -4.077,10.164 -5.246,13.97 0.833,1.245 0.02,7.495 0.335,12.497 -1.368,24.704 17.338,48.69 37.785,54.228 2.997,1.072 7.454,1.031 11.245,1.141 -4.473,-1.279 -5.051,-0.678 -9.408,-2.197 -3.143,-1.48 -3.832,-3.17 -6.058,-5.102 l 0.881,1.557 c -4.366,-1.545 -2.539,-1.912 -6.091,-3.037 l 0.941,-1.229 C 28.751,98.334 26.418,96.056 25.78,94.795 l -1.548,0.061 c -1.86,-2.295 -2.851,-3.949 -2.779,-5.23 l -0.5,0.891 c -0.567,-0.973 -6.843,-8.607 -3.587,-6.83 -0.605,-0.553 -1.409,-0.9 -2.281,-2.484 l 0.663,-0.758 c -1.567,-2.016 -2.884,-4.6 -2.784,-5.461 0.836,1.129 1.416,1.34 1.99,1.533 -3.957,-9.818 -4.179,-0.541 -7.176,-9.994 L 8.412,66.472 C 7.926,65.74 7.631,64.945 7.24,64.165 l 0.276,-2.75 C 4.667,58.121 6.719,47.409 7.13,41.534 7.415,39.145 9.508,36.602 11.1,32.614 l -0.97,-0.167 c 1.854,-3.234 10.586,-12.988 14.63,-12.486 1.959,-2.461 -0.389,-0.009 -0.772,-0.629 4.303,-4.453 5.656,-3.146 8.56,-3.947 3.132,-1.859 -2.688,0.725 -1.203,-0.709 5.414,-1.383 3.837,-3.144 10.9,-3.846 0.745,0.424 -1.729,0.655 -2.35,1.205 4.511,-2.207 14.275,-1.705 20.617,1.225 7.359,3.439 15.627,13.605 15.953,23.17 l 0.371,0.1 c -0.188,3.802 0.582,8.199 -0.752,12.238 l 0.908,-1.912"
   i:knockout="Off"
   inkscape:connector-curvature="0"
   style="fill:#ffffff;fill-opacity:0.09803922;stroke:#ffffff;stroke-width:0.27214959;stroke-miterlimit:4;stroke-opacity:0.19607843;stroke-dasharray:none" />

			
			<path
   id="path4465"
   d="m 35.164,59.654 c -0.625,-0.691 -0.995,-1.523 -1.409,-2.352 0.396,1.457 1.207,2.709 1.962,3.982 l -0.553,-1.63"
   i:knockout="Off"
   inkscape:connector-curvature="0"
   style="fill:#ffffff;fill-opacity:0.09803922;stroke:#ffffff;stroke-width:0.27214959;stroke-miterlimit:4;stroke-opacity:0.19607843;stroke-dasharray:none" />

			<path
   id="path4467"
   d="m 84.568,48.916 -0.264,0.662 c -0.484,3.438 -1.529,6.84 -3.131,9.994 1.77,-3.328 2.915,-6.968 3.395,-10.656"
   i:knockout="Off"
   inkscape:connector-curvature="0"
   style="fill:#ffffff;fill-opacity:0.09803922;stroke:#ffffff;stroke-width:0.27214959;stroke-miterlimit:4;stroke-opacity:0.19607843;stroke-dasharray:none" />

			<path
   id="path4469"
   d="M 45.527,0.537 C 46.742,0.092 48.514,0.293 49.803,0 48.123,0.141 46.451,0.225 44.8,0.438 l 0.727,0.099"
   i:knockout="Off"
   inkscape:connector-curvature="0"
   style="fill:#ffffff;fill-opacity:0.09803922;stroke:#ffffff;stroke-width:0.27214959;stroke-miterlimit:4;stroke-opacity:0.19607843;stroke-dasharray:none" />

			
			
		</g>

	</g>
    <g
       style="fill:#000000;fill-opacity:1;stroke:#000000;stroke-width:12;stroke-miterlimit:4;stroke-opacity:1;stroke-dasharray:none;display:inline"
       transform="matrix(0.87641099,0,0,0.87641099,849.18875,-296.66453)"
       id="g4040"
       inkscape:label="aptosid">
      <text
         xml:space="preserve"
         style="font-size:144px;font-style:normal;font-variant:normal;font-weight:bold;font-stretch:normal;text-align:start;line-height:125%;letter-spacing:0px;word-spacing:0px;writing-mode:lr-tb;text-anchor:start;fill:#000000;fill-opacity:1;stroke:#000000;stroke-width:12;stroke-miterlimit:4;stroke-opacity:1;stroke-dasharray:none;font-family:Dustismo;-inkscape-font-specification:Dustismo Bold"
         x="246.53732"
         y="1555.3855"
         id="text4042"
         sodipodi:linespacing="125%"
         inkscape:export-filename="logo-current.png"
         inkscape:export-xdpi="90"
         inkscape:export-ydpi="90"><tspan
           sodipodi:role="line"
           id="tspan4044"
           x="246.53732"
           y="1555.3855"
           dx="0 0 26.252148"><tspan
             dx="-0.98228282 -4.3535538 121.26881"
             style="font-size:144px;font-style:normal;font-variant:normal;font-weight:bold;font-stretch:normal;text-align:start;line-height:125%;writing-mode:lr-tb;text-anchor:start;fill:#000000;fill-opacity:1;stroke:#000000;stroke-width:12;stroke-miterlimit:4;stroke-opacity:1;stroke-dasharray:none;font-family:Dustismo;-inkscape-font-specification:Dustismo Bold"
             id="tspan4046">to  : Α<tspan
   id="tspan4048"
   style="font-weight:normal;fill:#000000;fill-opacity:1;stroke:#000000;stroke-width:12;stroke-miterlimit:4;stroke-opacity:1;stroke-dasharray:none;-inkscape-font-specification:Dustismo">πάτη</tspan></tspan></tspan></text>
      <path
         sodipodi:nodetypes="ccccc"
         inkscape:connector-curvature="0"
         id="path4050"
         d="m 448.25844,1456.6341 9.895,9.894 -9.895,9.895 -9.894,-9.895 z"
         style="fill:#000000;fill-opacity:1;fill-rule:nonzero;stroke:#000000;stroke-width:12;stroke-miterlimit:4;stroke-opacity:1;stroke-dasharray:none" />
      <path
         inkscape:export-ydpi="90"
         inkscape:export-xdpi="90"
         inkscape:export-filename="logo-current.png"
         sodipodi:nodetypes="cccccccccsccccscccscscs"
         inkscape:connector-curvature="0"
         id="path4052"
         d="m 207.94439,1485.6954 c -9.0469,10e-5 -16.51565,3.5156 -22.375,10.5 l 0,-9 -11.32858,0 0,83.875 -13.21875,0 0,11.5937 24.54733,0 0,-36.2812 c 5.85935,6.9844 13.3281,10.4687 22.375,10.4687 9.4687,0 17.54682,-3.5625 24.25,-10.6875 6.56243,-7.0313 9.84368,-15.2968 9.84375,-24.8125 -7e-5,-9.5155 -3.28132,-17.7968 -9.84375,-24.875 -6.70318,-7.1718 -14.7813,-10.7811 -24.25,-10.7812 z m 0,11.625 c 6.28121,0 11.62495,2.4531 16.03125,7.375 4.26557,4.7813 6.37494,10.3282 6.375,16.6562 -6e-5,6.2813 -2.15631,11.7969 -6.46875,16.5313 -4.45318,4.9219 -9.75004,7.375 -15.9375,7.375 -6.23441,0 -11.53128,-2.4531 -15.84375,-7.375 -4.12502,-4.6875 -6.18752,-10.2031 -6.1875,-16.5313 -2e-5,-6.3749 2.04685,-11.9218 6.125,-16.6562 4.31247,-4.9219 9.62497,-7.375 15.90625,-7.375 z"
         style="fill:#000000;fill-opacity:1;fill-rule:nonzero;stroke:#000000;stroke-width:12;stroke-miterlimit:4;stroke-opacity:1;stroke-dasharray:none" />
      <path
         inkscape:export-ydpi="90"
         inkscape:export-xdpi="90"
         inkscape:export-filename="logo-current.png"
         sodipodi:nodetypes="ccccccssscccccsscccscscs"
         inkscape:connector-curvature="0"
         id="path4054"
         d="m 508.45717,1459.9767 0,11.5937 13.25,0 0,24.625 c -5.5313,-6.9844 -12.89068,-10.4999 -22.125,-10.5 -9.51566,10e-5 -17.90627,3.5626 -25.125,10.6875 -7.17188,7.1251 -10.75,15.4532 -10.75,24.9687 0,9.5157 3.54687,17.8282 10.625,24.9063 7.0781,7.0781 15.35935,10.5937 24.875,10.5937 9.14058,0 16.64057,-3.4843 22.5,-10.4687 l 0,9 11.35225,0 0,-95.4062 z m -10.0625,37.3437 c 0.39002,-0.019 0.79199,0 1.1875,0 6.2812,0 11.53119,2.4531 15.75,7.375 4.03119,4.7344 6.03119,10.2813 6.03125,16.6562 -6e-5,6.3282 -2.07819,11.8594 -6.25,16.5938 -4.35943,4.875 -9.67192,7.3125 -15.90625,7.3125 -6.32815,0 -11.89065,-2.375 -16.71875,-7.1563 -4.78127,-4.8281 -7.18751,-10.4218 -7.1875,-16.75 -1e-5,-6.328 2.48435,-11.8906 7.40625,-16.7187 4.61423,-4.5704 9.83725,-7.0269 15.6875,-7.3125 z"
         style="fill:#000000;fill-opacity:1;fill-rule:nonzero;stroke:#000000;stroke-width:12;stroke-miterlimit:4;stroke-opacity:1;stroke-dasharray:none" />
      <path
         inkscape:export-ydpi="90"
         inkscape:export-xdpi="90"
         inkscape:export-filename="logo-current.png"
         sodipodi:nodetypes="ccscccsscscccsssscsaczsccc"
         d="m 414.17377,1509.6121 c -0.2813,-4.3126 -2.7422,-7.5235 -7.3829,-9.6328 -3.6093,-1.6407 -7.8749,-2.461 -12.7968,-2.461 -3.5625,0 -6.9844,0.6563 -10.2657,1.9688 -4.3124,1.6875 -6.4687,4.0078 -6.4687,6.9609 0,3.1406 2.4141,5.5547 7.2422,7.2422 3.0469,1.0781 7.0473,1.1402 14.8125,2.1078 15.0809,1.8793 25.2899,7.7759 25.5469,20.3922 0.1345,6.608 -3.2813,11.8359 -9.8438,15.6797 -5.4843,3.2343 -11.8125,4.8515 -18.9844,4.8515 -7.8749,0 -14.578,-1.5938 -20.1093,-4.7812 -6.4687,-3.7032 -10.2187,-9.1641 -11.25,-16.3828 l 11.3203,-2.3906 c 1.1719,5.1093 4.4297,8.6015 9.1524,10.1015 4.7226,1.5 8.0365,1.9757 11.7382,1.875 4.5938,-0.125 9.0781,-1.3672 11.6524,-2.836 2.7293,-1.5573 4.5495,-3.0879 4.6523,-5.6952 0.1829,-4.6371 -3.9067,-7.2691 -12.2504,-8.7691 -6.0938,-0.75 -12.519,-1.2319 -18.6168,-2.6919 -4.9423,-1.1833 -9.4489,-3.0019 -12.5859,-6.539 -2.874,-3.2406 -4.5703,-6.586 -4.5703,-12.1641 0,-5.6719 2.4141,-10.1484 7.8164,-14.1328 5.4024,-3.9844 12.7852,-6.3281 21.5039,-6.3281 7.8282,0 14.4844,1.5937 19.9688,4.7812 6.4218,3.75 10.1484,9.2109 11.1796,16.3828 l -11.4609,2.461"
         style="font-size:144px;font-style:normal;font-variant:normal;font-weight:bold;font-stretch:normal;text-align:start;line-height:125%;letter-spacing:0px;word-spacing:0px;writing-mode:lr-tb;text-anchor:start;fill:#000000;fill-opacity:1;stroke:#000000;stroke-width:12;stroke-miterlimit:4;stroke-opacity:1;stroke-dasharray:none;font-family:Dustismo;-inkscape-font-specification:Dustismo Bold"
         id="path4056"
         inkscape:connector-curvature="0" />
      <path
         style="font-size:144px;font-style:normal;font-variant:normal;font-weight:bold;font-stretch:normal;text-align:center;line-height:125%;letter-spacing:0px;word-spacing:0px;writing-mode:lr-tb;text-anchor:middle;fill:#000000;fill-opacity:1;stroke:#000000;stroke-width:12;stroke-miterlimit:4;stroke-opacity:1;stroke-dasharray:none;font-family:Dustismo;-inkscape-font-specification:Dustismo Bold"
         d="m 126.30444,1485.6954 c -9.51565,10e-5 -17.87502,3.5626 -25.09375,10.6875 -7.17188,7.1251 -10.78126,15.4219 -10.78125,24.9375 -1e-5,9.5156 3.54687,17.8281 10.625,24.9062 7.07811,7.0781 15.39059,10.625 24.90625,10.625 9.11103,0 16.58644,-3.4982 22.4375,-10.4375 l 0,8.9375 15.99556,0 0,-11.5937 -4.65625,0 0,-55.8125 -11.27681,0 0,8.2187 c -5.53131,-6.9843 -12.92192,-10.4686 -22.15625,-10.4687 z m 0,11.5937 c 6.28121,0 11.5312,2.4532 15.75,7.375 4.03119,4.7344 6.03118,10.2813 6.03125,16.6563 -7e-5,6.3281 -2.07818,11.8594 -6.25,16.5937 -4.35942,4.875 -9.64067,7.3125 -15.875,7.3125 -6.32816,0 -11.9219,-2.3749 -16.75,-7.1562 -4.78126,-4.8281 -7.15627,-10.4219 -7.15625,-16.75 -2e-5,-6.3281 2.45311,-11.8906 7.375,-16.7188 4.92185,-4.875 10.54684,-7.3125 16.875,-7.3125 z"
         id="path4058"
         inkscape:connector-curvature="0"
         sodipodi:nodetypes="ccssscccccccccscccscscs" />
      <path
         sodipodi:nodetypes="ccccccc"
         d="m 433.60678,1487.1824 20.32031,0 0,68.2031 -11.60156,0 0,-56.6016 -8.71875,0 0,-11.6015"
         style="font-size:144px;font-style:normal;font-variant:normal;font-weight:bold;font-stretch:normal;text-align:start;line-height:125%;letter-spacing:0px;word-spacing:0px;writing-mode:lr-tb;text-anchor:start;fill:#000000;fill-opacity:1;stroke:#000000;stroke-width:12;stroke-miterlimit:4;stroke-opacity:1;stroke-dasharray:none;font-family:Dustismo;-inkscape-font-specification:Dustismo Bold"
         id="path4060"
         inkscape:connector-curvature="0" />
    </g>
    <g
       transform="matrix(-1.0387755,0,0,1.0387755,1136.2305,433.59434)"
       id="layer1-0"
       inkscape:label="Layer 1">
      <g
         transform="translate(-422.36026,466.6479)"
         id="fred"
         style="display:inline">
        <path
           inkscape:connector-curvature="0"
           id="path4615"
           d="m 784.6481,-12.44218 c 13.09318,0.23398 25.19748,15.87438 25.19748,15.87438 19.95546,-16.46903 19.83035,22.09813 19.83035,22.09813 18.56422,8.56773 13.75784,38.95527 13.75784,38.95527 l -5.79544,1.28506 c 4.65288,9.11441 7.28205,19.40283 7.28205,30.28734 0,3.21342 -0.23844,6.35437 -0.6803,9.44902 9.81891,1.66334 28.71495,6.02288 25.44935,14.51372 l 1.73865,3.50245 c 0,0 8.75732,3.50342 7.00485,9.19703 -1.05093,3.41429 -9.4778,10.25952 -16.07592,15.21929 2.40619,0.9499 10.01921,4.38867 8.13879,9.54976 -2.22414,6.10085 -30.56454,22.52656 -30.56454,22.52656 l 13.8838,-21.11548 c 0,0 -24.89943,-2.9335 -33.66378,-10.91046 -1.10924,0.91154 -2.23507,1.80324 -3.40165,2.64571 4.824,2.29389 8.00075,5.32275 6.501,9.22224 l 1.76375,3.50246 c 0,0 8.75732,3.50347 7.00496,9.19709 -1.75253,5.69355 -24.08891,21.01467 -24.08874,21.01467 l 10.96083,-19.70445 c 0,0 -12.38274,-1.714 -20.93902,-6.14817 0.89867,12.2489 -9.01328,27.25225 -25.44952,36.71271 -15.92338,9.1653 -33.23541,10.36225 -43.51589,4.13238 5.11032,-0.77187 10.71526,-2.70606 16.12629,-5.82066 14.42992,-8.30555 22.23718,-21.8211 17.43669,-30.16133 -4.78446,-8.31235 -20.30735,-8.34844 -34.69692,-0.12596 4.34316,-5.62103 10.32791,-10.86411 17.58786,-15.0429 0.28598,-0.1646 0.5698,-0.31918 0.85663,-0.47874 -4.10121,-1.96513 -7.96716,-4.33297 -11.56555,-7.03007 -0.87017,3.99644 -2.38891,8.13942 -4.61112,12.17037 -2.93503,5.32394 -6.66317,9.72485 -10.6837,12.95152 5.77385,-10.55133 5.56646,-21.8118 -0.52912,-25.17226 -6.11609,-3.37173 -15.83635,2.49578 -21.6698,13.07743 -2.18765,3.96811 -3.51481,8.04875 -4.00642,11.76726 -3.20956,-5.08244 -3.8779,-12.63829 -1.88983,-20.66194 -3.36827,-2.13093 -20.42497,-13.11573 -22.17371,-18.26816 -1.93255,-5.69356 7.73564,-9.19703 7.73564,-9.19703 l 1.91504,-3.50245 c -1.82342,-4.29829 2.63335,-7.53766 8.86946,-9.9026 -3.36879,-2.57426 -6.24959,-5.14495 -6.7782,-6.7025 -1.40558,-4.14473 5.64426,-6.67729 5.64426,-6.67729 l 1.38586,-2.54496 c -2.60627,-6.14329 12.36778,-9.30724 20.28395,-10.53252 4.63662,-32.92291 33.39338,-58.30688 68.0078,-58.30688 16.61949,0 31.89063,5.84241 43.79326,15.57202 -2.22323,-6.31866 -3.7797,-11.46485 -3.7797,-11.46485 -8.229,1.81129 -16.45387,-19.95635 -16.45387,-19.95635 -7.13211,1.56981 -34.84815,-7.28207 -34.84815,-7.28207 0,0 -9.14915,9.47028 -13.58133,2.39377 -4.43309,-7.0749 -13.58139,0.12598 -13.58139,0.12598 21.13882,-29.38333 26.93601,-8.23956 26.93601,-8.23956 l 5.87091,-4.73711 c 4.46142,-5.41252 9.32453,-7.3415 14.06025,-7.25687 z m -76.70093,115.55541 c -6.8513,3.11397 -16.47919,4.30877 -16.47919,4.30877 l 2.34341,3.83002 c 5.53258,-1.4772 11.08385,-2.39186 14.86645,-2.9229 -0.3202,-1.71429 -0.54493,-3.45922 -0.73067,-5.21589 z m 130.87542,20.81312 c -0.92962,2.01613 -1.98043,3.96596 -3.0993,5.87097 12.3709,2.40132 26.96859,6.82625 23.66038,14.08541 l 0.22682,0.37794 5.69458,-10.23017 c 0,0 -19.52885,-2.70447 -26.48248,-10.10415 z m -124.52565,1.33543 c -0.0555,0.0823 -0.0928,0.17062 -0.15129,0.25198 0.0774,-0.03 0.14942,-0.0716 0.22682,-0.1008 -0.0249,-0.0504 -0.0504,-0.10052 -0.0758,-0.15118 z m -10.20501,6.82821 c -9.14445,3.59119 -20.43506,4.98912 -20.43506,4.98912 l 7.9875,15.824 c 0.90576,-3.26203 2.21195,-6.57229 4.00647,-9.82701 2.37543,-4.30922 5.2883,-8.01578 8.44109,-10.98611 z"
           style="color:#000000;fill:#ffffff;fill-opacity:1;stroke:#7d7d7d;stroke-width:2;stroke-linecap:square;stroke-linejoin:bevel;stroke-miterlimit:4;stroke-opacity:1;stroke-dasharray:none;marker:none;visibility:visible;display:inline;overflow:visible;filter:url(#filter6636)"
           sodipodi:nodetypes="sccccscccsccccccccccccsccsccccscscccccccccccsccccccccsccccccccccccccccccccc" />
        <path
           style="color:#000000;fill:#000000;fill-opacity:1;stroke:none;stroke-width:7;marker:none;visibility:visible;display:inline;overflow:visible"
           d="m 784.6481,-12.44218 c 13.09318,0.23398 25.19748,15.87438 25.19748,15.87438 19.95546,-16.46903 19.83035,22.09813 19.83035,22.09813 18.56422,8.56773 13.75784,38.95527 13.75784,38.95527 l -5.79544,1.28506 c 4.65288,9.11441 7.28205,19.40283 7.28205,30.28734 0,3.21342 -0.23844,6.35437 -0.6803,9.44902 9.81891,1.66334 28.71495,6.02288 25.44935,14.51372 l 1.73865,3.50245 c 0,0 8.75732,3.50342 7.00485,9.19703 -1.05093,3.41429 -9.4778,10.25952 -16.07592,15.21929 2.40619,0.9499 10.01921,4.38867 8.13879,9.54976 -2.22414,6.10085 -30.56454,22.52656 -30.56454,22.52656 l 13.8838,-21.11548 c 0,0 -24.89943,-2.9335 -33.66378,-10.91046 -1.10924,0.91154 -2.23507,1.80324 -3.40165,2.64571 4.824,2.29389 8.00075,5.32275 6.501,9.22224 l 1.76375,3.50246 c 0,0 8.75732,3.50347 7.00496,9.19709 -1.75253,5.69355 -24.08891,21.01467 -24.08874,21.01467 l 10.96083,-19.70445 c 0,0 -12.38274,-1.714 -20.93902,-6.14817 0.89867,12.2489 -9.01328,27.25225 -25.44952,36.71271 -15.92338,9.1653 -33.23541,10.36225 -43.51589,4.13238 5.11032,-0.77187 10.71526,-2.70606 16.12629,-5.82066 14.42992,-8.30555 22.23718,-21.8211 17.43669,-30.16133 -4.78446,-8.31235 -20.30735,-8.34844 -34.69692,-0.12596 4.34316,-5.62103 10.32791,-10.86411 17.58786,-15.0429 0.28598,-0.1646 0.5698,-0.31918 0.85663,-0.47874 -4.10121,-1.96513 -7.96716,-4.33297 -11.56555,-7.03007 -0.87017,3.99644 -2.38891,8.13942 -4.61112,12.17037 -2.93503,5.32394 -6.66317,9.72485 -10.6837,12.95152 5.77385,-10.55133 5.56646,-21.8118 -0.52912,-25.17226 -6.11609,-3.37173 -15.83635,2.49578 -21.6698,13.07743 -2.18765,3.96811 -3.51481,8.04875 -4.00642,11.76726 -3.20956,-5.08244 -3.8779,-12.63829 -1.88983,-20.66194 -3.36827,-2.13093 -20.42497,-13.11573 -22.17371,-18.26816 -1.93255,-5.69356 7.73564,-9.19703 7.73564,-9.19703 l 1.91504,-3.50245 c -1.82342,-4.29829 2.63335,-7.53766 8.86946,-9.9026 -3.36879,-2.57426 -6.24959,-5.14495 -6.7782,-6.7025 -1.40558,-4.14473 5.64426,-6.67729 5.64426,-6.67729 l 1.38586,-2.54496 c -2.60627,-6.14329 12.36778,-9.30724 20.28395,-10.53252 4.63662,-32.92291 33.39338,-58.30688 68.0078,-58.30688 16.61949,0 31.89063,5.84241 43.79326,15.57202 -2.22323,-6.31866 -3.7797,-11.46485 -3.7797,-11.46485 -8.229,1.81129 -16.45387,-19.95635 -16.45387,-19.95635 -7.13211,1.56981 -34.84815,-7.28207 -34.84815,-7.28207 0,0 -9.14915,9.47028 -13.58133,2.39377 -4.43309,-7.0749 -13.58139,0.12598 -13.58139,0.12598 21.13882,-29.38333 26.93601,-8.23956 26.93601,-8.23956 l 5.87091,-4.73711 c 4.46142,-5.41252 9.32453,-7.3415 14.06025,-7.25687 z m -0.20149,3.12448 c -9.09623,-0.28501 -12.42241,8.34055 -12.42241,8.34036 4.17358,2.66887 31.82428,1.9654 31.82428,1.9654 -8.29535,-7.576 -14.63736,-10.15646 -19.40187,-10.30576 z m 31.11876,12.7499 c -1.99057,-0.062 -3.40159,0.68033 -3.40159,0.68033 l 10.07898,15.26964 c 2.43323,2.64027 1.04328,5.63406 -0.50401,7.66004 -1.20919,0.96418 -2.1664,1.86173 -2.21734,2.34336 0,0 1.14301,-0.93692 2.21734,-2.34336 2.2485,-1.79304 5.39216,-3.8048 5.39216,-3.8048 C 825.23219,6.58908 819.36553,3.5506 815.56537,3.4322 z m 13.73262,25.60059 c 4.45717,3.95162 1.36065,26.583 1.36065,26.58329 l 9.97813,4.53553 C 842.05453,40.11165 829.29799,29.03279 829.29799,29.03279 z m -53.06588,8.56716 c -32.92994,0 -59.4658,26.17872 -59.46597,58.45805 0,0.46611 0.0147,0.92231 0.0249,1.38581 16.16233,23.89531 59.17664,8.93973 84.15948,-8.61748 23.70758,-16.66114 32.58435,1.37125 34.77245,7.35764 5e-5,-0.0425 0,-0.0836 0,-0.12597 0,-32.27933 -26.56113,-58.45805 -59.49124,-58.45805 z m 7.20658,37.74574 -32.22755,24.59271 c -7.1834,-12.18986 32.22755,-24.59271 32.22755,-24.59271 z m -54.09896,1.99057 c 5.5864,-0.17877 7.73569,23.08089 7.73569,23.08089 l -9.57509,-22.19899 c 0.65293,-0.57133 1.26149,-0.86337 1.8394,-0.8819 z m -21.11542,11.01132 c -11.293,-0.0453 -18.52014,7.93719 -18.52014,7.93719 l 0.17639,3.9812 c 3.69018,0 21.44299,-7.33248 21.44299,-7.33248 l 0.52917,-4.30877 c -1.25202,-0.19424 -2.46013,-0.27249 -3.62841,-0.27714 z m 101.59605,12.59869 c -4.24825,-0.10551 -10.25538,4.03157 -10.25538,4.03157 -52.78449,21.05077 -80.73251,0.73073 -80.73251,0.73073 7.76256,19.59781 83.83492,15.97092 88.49342,15.24445 4.65838,-0.72648 8.52642,-10.90356 6.19842,-17.43663 -0.65502,-1.83741 -2.04162,-2.52882 -3.70395,-2.57012 z m -122.73668,0.75594 c 0,0 -8.09675,2.06922 -3.52762,3.50245 l 3.52762,-3.50245 z m 20.86349,1.41102 c -6.8513,3.11397 -16.47919,4.30877 -16.47919,4.30877 l 2.34341,3.83002 c 5.53258,-1.4772 11.08385,-2.39186 14.86645,-2.9229 -0.3202,-1.71429 -0.54493,-3.45922 -0.73067,-5.21589 z M 844.41642,107.8 c -1.45568,0.007 -2.95028,0.13627 -4.51038,0.40316 l 0.6552,5.89618 c 0,0 22.11132,10.07899 26.70924,10.07899 l 0.22688,-5.46787 c 0,0 -9.00976,-10.97256 -23.08094,-10.91046 z m -137.72921,3.04887 c -15.52006,-0.0621 -25.44934,10.91046 -25.44934,10.91046 l 0.25192,5.46787 c 5.07225,0 29.45587,-10.05378 29.45587,-10.05378 l 0.73073,-5.9214 c -1.72069,-0.26688 -3.38358,-0.39675 -4.98918,-0.40315 z m 14.81613,6.22375 c 8.67964,11.16647 63.42139,28.24464 64.75745,28.90148 1.33605,0.65684 10.00334,-3.28883 10.00334,-7.88681 0,-4.59798 -4.66149,-7.88681 -4.66149,-7.88681 -11.34915,5.91165 -70.0993,-13.12786 -70.0993,-13.12786 z m 117.31925,6.85373 c -0.92962,2.01613 -1.98043,3.96596 -3.0993,5.87097 12.3709,2.40132 26.96859,6.82625 23.66038,14.08541 l 0.22682,0.37794 5.69458,-10.23017 c 0,0 -19.52885,-2.70447 -26.48248,-10.10415 z m -124.52565,1.33543 c -0.0555,0.0823 -0.0928,0.17062 -0.15129,0.25198 0.0774,-0.03 0.14942,-0.0716 0.22682,-0.1008 -0.0249,-0.0504 -0.0504,-0.10052 -0.0758,-0.15118 z m 156.47594,0.88191 4.38442,4.81273 c 5.69361,-1.97057 -4.38442,-4.81273 -4.38442,-4.81273 z m -193.16343,3.07408 c 0,0 -11.09224,2.84216 -4.81279,4.81273 l 4.81279,-4.81273 z m 149.72301,1.56226 c -1.84755,0.007 -3.76469,0.14239 -5.74494,0.42837 l 0.83152,6.34971 c 0,0 28.05363,10.78451 33.89066,10.78451 l 0.27708,-5.87097 c 0,0 -11.39351,-11.75837 -29.25432,-11.69162 z m -97.69038,0.0249 c 3.82793,10.07015 -5.69458,37.09059 -5.69458,37.09059 0,0 4.94974,-7.03987 8.61748,-19.30118 3.6678,-12.26137 -2.9229,-17.78941 -2.9229,-17.78941 z m -25.55015,1.28506 c -9.14445,3.59119 -20.43506,4.98912 -20.43506,4.98912 l 7.9875,15.824 c 0.90576,-3.26203 2.21195,-6.57229 4.00647,-9.82701 2.37543,-4.30922 5.2883,-8.01578 8.44109,-10.98611 z m 93.91079,15.5468 c -1.45561,0.007 -2.95027,0.13633 -4.51031,0.40316 l 0.65519,5.9214 c 0,0 22.11127,10.05383 26.70919,10.05383 l 0.20166,-5.46787 c 0,0 -8.98437,-10.97257 -23.05573,-10.91052 z m -97.91715,0.78116 c -0.20891,-0.0108 -0.41251,-0.006 -0.62992,0 -0.80297,0.0147 -1.65229,0.1433 -2.54502,0.42837 -3.59833,8.10598 -2.39373,15.74835 -2.39373,15.74835 0,0 1.58996,-6.77451 4.61112,-10.20495 3.02128,-3.43027 5.84576,-4.35914 5.84576,-4.35914 0.37698,0.28665 -1.75469,-1.44803 -4.88821,-1.61263 z m 160.68397,2.041 5.54339,5.14024 c 7.22675,-2.1124 -5.54339,-5.14024 -5.54339,-5.14024 z m -103.30943,9.57503 c -0.29799,-0.008 -0.60562,-0.0119 -0.93228,0 -10.45994,0.38735 -13.17829,5.44265 -13.17829,5.44265 0,0 8.52926,-1.95278 13.17829,-0.40321 4.64875,1.54968 6.19843,4.25839 6.19843,4.25839 -0.37517,0.75062 3.971,-9.03729 -5.26615,-9.29783 z m 37.4181,1.9402 c -5.50645,21.64334 -51.12551,48.83258 -51.12551,48.83258 0,0 15.7109,-3.22548 35.37716,-16.57988 19.6662,-13.3544 15.74835,-32.2527 15.74835,-32.2527 z m 29.48109,4.03157 4.3843,4.81273 c 5.69367,-1.97057 -4.3843,-4.81273 -4.3843,-4.81273 z"
           id="outline"
           inkscape:connector-curvature="0" />
      </g>
    </g>
    <g
       inkscape:label="aptosid"
       id="g4197"
       transform="matrix(0.87641099,0,0,0.87641099,849.18875,-296.66453)"
       style="fill:url(#linearGradient5947);fill-opacity:1;stroke:#ffffff;stroke-width:2;stroke-miterlimit:4;stroke-opacity:1;stroke-dasharray:none;display:inline">
      <text
         inkscape:export-ydpi="90"
         inkscape:export-xdpi="90"
         inkscape:export-filename="logo-current.png"
         sodipodi:linespacing="125%"
         id="text4199"
         y="1555.3855"
         x="246.53732"
         style="font-size:144px;font-style:normal;font-variant:normal;font-weight:bold;font-stretch:normal;text-align:start;line-height:125%;letter-spacing:0px;word-spacing:0px;writing-mode:lr-tb;text-anchor:start;fill:url(#linearGradient5947);fill-opacity:1;stroke:#ffffff;stroke-width:2;stroke-miterlimit:4;stroke-opacity:1;stroke-dasharray:none;font-family:Dustismo;-inkscape-font-specification:Dustismo Bold"
         xml:space="preserve"><tspan
           dx="0 0 26.252148"
           y="1555.3855"
           x="246.53732"
           id="tspan4201"
           sodipodi:role="line"
           style="fill:url(#linearGradient5947);fill-opacity:1"><tspan
             id="tspan4203"
             style="font-size:144px;font-style:normal;font-variant:normal;font-weight:bold;font-stretch:normal;text-align:start;line-height:125%;writing-mode:lr-tb;text-anchor:start;fill:url(#linearGradient5947);fill-opacity:1;stroke:#ffffff;stroke-width:2;stroke-miterlimit:4;stroke-opacity:1;stroke-dasharray:none;font-family:Dustismo;-inkscape-font-specification:Dustismo Bold"
             dx="-0.98228282 -4.3535538 121.26881">to  : Α<tspan
   style="font-weight:normal;fill:url(#linearGradient5947);fill-opacity:1;stroke:#ffffff;stroke-width:2;stroke-miterlimit:4;stroke-opacity:1;stroke-dasharray:none;-inkscape-font-specification:Dustismo"
   id="tspan4205">πάτη</tspan></tspan></tspan></text>
      <path
         style="fill:url(#linearGradient5947);fill-opacity:1;stroke:#ffffff;stroke-width:2;stroke-miterlimit:4;stroke-opacity:1;stroke-dasharray:none"
         d="m 448.25844,1456.6341 9.895,9.894 -9.895,9.895 -9.894,-9.895 z"
         id="path4207"
         inkscape:connector-curvature="0"
         sodipodi:nodetypes="ccccc" />
      <path
         style="fill:url(#linearGradient5947);fill-opacity:1;stroke:#ffffff;stroke-width:2;stroke-miterlimit:4;stroke-opacity:1;stroke-dasharray:none"
         d="m 207.94439,1485.6954 c -9.0469,10e-5 -16.51565,3.5156 -22.375,10.5 l 0,-9 -11.32858,0 0,83.875 -13.21875,0 0,11.5937 24.54733,0 0,-36.2812 c 5.85935,6.9844 13.3281,10.4687 22.375,10.4687 9.4687,0 17.54682,-3.5625 24.25,-10.6875 6.56243,-7.0313 9.84368,-15.2968 9.84375,-24.8125 -7e-5,-9.5155 -3.28132,-17.7968 -9.84375,-24.875 -6.70318,-7.1718 -14.7813,-10.7811 -24.25,-10.7812 z m 0,11.625 c 6.28121,0 11.62495,2.4531 16.03125,7.375 4.26557,4.7813 6.37494,10.3282 6.375,16.6562 -6e-5,6.2813 -2.15631,11.7969 -6.46875,16.5313 -4.45318,4.9219 -9.75004,7.375 -15.9375,7.375 -6.23441,0 -11.53128,-2.4531 -15.84375,-7.375 -4.12502,-4.6875 -6.18752,-10.2031 -6.1875,-16.5313 -2e-5,-6.3749 2.04685,-11.9218 6.125,-16.6562 4.31247,-4.9219 9.62497,-7.375 15.90625,-7.375 z"
         id="path4209"
         inkscape:connector-curvature="0"
         sodipodi:nodetypes="cccccccccsccccscccscscs"
         inkscape:export-filename="logo-current.png"
         inkscape:export-xdpi="90"
         inkscape:export-ydpi="90" />
      <path
         style="fill:url(#linearGradient5947);fill-opacity:1;stroke:#ffffff;stroke-width:2;stroke-miterlimit:4;stroke-opacity:1;stroke-dasharray:none"
         d="m 508.45717,1459.9767 0,11.5937 13.25,0 0,24.625 c -5.5313,-6.9844 -12.89068,-10.4999 -22.125,-10.5 -9.51566,10e-5 -17.90627,3.5626 -25.125,10.6875 -7.17188,7.1251 -10.75,15.4532 -10.75,24.9687 0,9.5157 3.54687,17.8282 10.625,24.9063 7.0781,7.0781 15.35935,10.5937 24.875,10.5937 9.14058,0 16.64057,-3.4843 22.5,-10.4687 l 0,9 11.35225,0 0,-95.4062 z m -10.0625,37.3437 c 0.39002,-0.019 0.79199,0 1.1875,0 6.2812,0 11.53119,2.4531 15.75,7.375 4.03119,4.7344 6.03119,10.2813 6.03125,16.6562 -6e-5,6.3282 -2.07819,11.8594 -6.25,16.5938 -4.35943,4.875 -9.67192,7.3125 -15.90625,7.3125 -6.32815,0 -11.89065,-2.375 -16.71875,-7.1563 -4.78127,-4.8281 -7.18751,-10.4218 -7.1875,-16.75 -1e-5,-6.328 2.48435,-11.8906 7.40625,-16.7187 4.61423,-4.5704 9.83725,-7.0269 15.6875,-7.3125 z"
         id="path4211"
         inkscape:connector-curvature="0"
         sodipodi:nodetypes="ccccccssscccccsscccscscs"
         inkscape:export-filename="logo-current.png"
         inkscape:export-xdpi="90"
         inkscape:export-ydpi="90" />
      <path
         inkscape:connector-curvature="0"
         id="path4213"
         style="font-size:144px;font-style:normal;font-variant:normal;font-weight:bold;font-stretch:normal;text-align:start;line-height:125%;letter-spacing:0px;word-spacing:0px;writing-mode:lr-tb;text-anchor:start;fill:url(#linearGradient5947);fill-opacity:1;stroke:#ffffff;stroke-width:2;stroke-miterlimit:4;stroke-opacity:1;stroke-dasharray:none;font-family:Dustismo;-inkscape-font-specification:Dustismo Bold"
         d="m 414.17377,1509.6121 c -0.2813,-4.3126 -2.7422,-7.5235 -7.3829,-9.6328 -3.6093,-1.6407 -7.8749,-2.461 -12.7968,-2.461 -3.5625,0 -6.9844,0.6563 -10.2657,1.9688 -4.3124,1.6875 -6.4687,4.0078 -6.4687,6.9609 0,3.1406 2.4141,5.5547 7.2422,7.2422 3.0469,1.0781 7.0473,1.1402 14.8125,2.1078 15.0809,1.8793 25.2899,7.7759 25.5469,20.3922 0.1345,6.608 -3.2813,11.8359 -9.8438,15.6797 -5.4843,3.2343 -11.8125,4.8515 -18.9844,4.8515 -7.8749,0 -14.578,-1.5938 -20.1093,-4.7812 -6.4687,-3.7032 -10.2187,-9.1641 -11.25,-16.3828 l 11.3203,-2.3906 c 1.1719,5.1093 4.4297,8.6015 9.1524,10.1015 4.7226,1.5 8.0365,1.9757 11.7382,1.875 4.5938,-0.125 9.0781,-1.3672 11.6524,-2.836 2.7293,-1.5573 4.5495,-3.0879 4.6523,-5.6952 0.1829,-4.6371 -3.9067,-7.2691 -12.2504,-8.7691 -6.0938,-0.75 -12.519,-1.2319 -18.6168,-2.6919 -4.9423,-1.1833 -9.4489,-3.0019 -12.5859,-6.539 -2.874,-3.2406 -4.5703,-6.586 -4.5703,-12.1641 0,-5.6719 2.4141,-10.1484 7.8164,-14.1328 5.4024,-3.9844 12.7852,-6.3281 21.5039,-6.3281 7.8282,0 14.4844,1.5937 19.9688,4.7812 6.4218,3.75 10.1484,9.2109 11.1796,16.3828 l -11.4609,2.461"
         sodipodi:nodetypes="ccscccsscscccsssscsaczsccc"
         inkscape:export-filename="logo-current.png"
         inkscape:export-xdpi="90"
         inkscape:export-ydpi="90" />
      <path
         sodipodi:nodetypes="ccssscccccccccscccscscs"
         inkscape:connector-curvature="0"
         id="path4215"
         d="m 126.30444,1485.6954 c -9.51565,10e-5 -17.87502,3.5626 -25.09375,10.6875 -7.17188,7.1251 -10.78126,15.4219 -10.78125,24.9375 -1e-5,9.5156 3.54687,17.8281 10.625,24.9062 7.07811,7.0781 15.39059,10.625 24.90625,10.625 9.11103,0 16.58644,-3.4982 22.4375,-10.4375 l 0,8.9375 15.99556,0 0,-11.5937 -4.65625,0 0,-55.8125 -11.27681,0 0,8.2187 c -5.53131,-6.9843 -12.92192,-10.4686 -22.15625,-10.4687 z m 0,11.5937 c 6.28121,0 11.5312,2.4532 15.75,7.375 4.03119,4.7344 6.03118,10.2813 6.03125,16.6563 -7e-5,6.3281 -2.07818,11.8594 -6.25,16.5937 -4.35942,4.875 -9.64067,7.3125 -15.875,7.3125 -6.32816,0 -11.9219,-2.3749 -16.75,-7.1562 -4.78126,-4.8281 -7.15627,-10.4219 -7.15625,-16.75 -2e-5,-6.3281 2.45311,-11.8906 7.375,-16.7188 4.92185,-4.875 10.54684,-7.3125 16.875,-7.3125 z"
         style="font-size:144px;font-style:normal;font-variant:normal;font-weight:bold;font-stretch:normal;text-align:center;line-height:125%;letter-spacing:0px;word-spacing:0px;writing-mode:lr-tb;text-anchor:middle;fill:url(#linearGradient5947);fill-opacity:1;stroke:#ffffff;stroke-width:2;stroke-miterlimit:4;stroke-opacity:1;stroke-dasharray:none;font-family:Dustismo;-inkscape-font-specification:Dustismo Bold" />
      <path
         inkscape:connector-curvature="0"
         id="path4217"
         style="font-size:144px;font-style:normal;font-variant:normal;font-weight:bold;font-stretch:normal;text-align:start;line-height:125%;letter-spacing:0px;word-spacing:0px;writing-mode:lr-tb;text-anchor:start;fill:url(#linearGradient5947);fill-opacity:1;stroke:#ffffff;stroke-width:2;stroke-miterlimit:4;stroke-opacity:1;stroke-dasharray:none;font-family:Dustismo;-inkscape-font-specification:Dustismo Bold"
         d="m 433.60678,1487.1824 20.32031,0 0,68.2031 -11.60156,0 0,-56.6016 -8.71875,0 0,-11.6015"
         sodipodi:nodetypes="ccccccc" />
    </g>
  </g>
</svg>
