<?xml version="1.0" encoding="UTF-8" standalone="no"?>
<!-- Created with Inkscape (http://www.inkscape.org/) -->

<svg
   xmlns:dc="http://purl.org/dc/elements/1.1/"
   xmlns:cc="http://creativecommons.org/ns#"
   xmlns:rdf="http://www.w3.org/1999/02/22-rdf-syntax-ns#"
   xmlns:svg="http://www.w3.org/2000/svg"
   xmlns="http://www.w3.org/2000/svg"
   xmlns:xlink="http://www.w3.org/1999/xlink"
   xmlns:sodipodi="http://sodipodi.sourceforge.net/DTD/sodipodi-0.dtd"
   xmlns:inkscape="http://www.inkscape.org/namespaces/inkscape"
   width="1600"
   height="1200"
   id="svg2"
   version="1.1"
   inkscape:version="0.47 r22583"
   sodipodi:docname="logo.svg"
   inkscape:export-filename="apate-xfce-splash.png"
   inkscape:export-xdpi="45"
   inkscape:export-ydpi="45"
   style="display:inline;enable-background:new">
  <sodipodi:namedview
     id="base"
     pagecolor="#1e72a0"
     bordercolor="#666666"
     borderopacity="1.0"
     inkscape:pageopacity="1"
     inkscape:pageshadow="2"
     inkscape:zoom="0.5"
     inkscape:cx="566.16077"
     inkscape:cy="579.37472"
     inkscape:document-units="px"
     inkscape:current-layer="layer1"
     showgrid="false"
     borderlayer="true"
     inkscape:window-width="1912"
     inkscape:window-height="1153"
     inkscape:window-x="0"
     inkscape:window-y="0"
     inkscape:window-maximized="1"
     showguides="true"
     inkscape:snap-global="false">
    <inkscape:grid
       type="xygrid"
       id="grid25669"
       empspacing="5"
       visible="true"
       enabled="true"
       snapvisiblegridlinesonly="true" />
  </sodipodi:namedview>
  <defs
     id="defs4">
    <linearGradient
       id="linearGradient5768">
      <stop
         style="stop-color:#000000;stop-opacity:0;"
         offset="0"
         id="stop5770" />
      <stop
         id="stop5776"
         offset="0.5"
         style="stop-color:#000000;stop-opacity:0;" />
      <stop
         style="stop-color:#000000;stop-opacity:1;"
         offset="1"
         id="stop5772" />
    </linearGradient>
    <filter
       inkscape:collect="always"
       id="filter6865"
       color-interpolation-filters="sRGB">
      <feBlend
         inkscape:collect="always"
         mode="screen"
         in2="BackgroundImage"
         id="feBlend6867" />
    </filter>
    <filter
       inkscape:collect="always"
       id="filter6965"
       color-interpolation-filters="sRGB">
      <feGaussianBlur
         inkscape:collect="always"
         stdDeviation="0.48893527"
         id="feGaussianBlur6967" />
    </filter>
    <filter
       inkscape:collect="always"
       id="filter6977"
       color-interpolation-filters="sRGB">
      <feGaussianBlur
         inkscape:collect="always"
         stdDeviation="0.97787055"
         id="feGaussianBlur6979" />
    </filter>
    <filter
       inkscape:collect="always"
       id="filter5745"
       color-interpolation-filters="sRGB">
      <feGaussianBlur
         inkscape:collect="always"
         stdDeviation="1.5700981"
         id="feGaussianBlur5747" />
    </filter>
    <filter
       inkscape:collect="always"
       id="filter5749"
       color-interpolation-filters="sRGB">
      <feGaussianBlur
         inkscape:collect="always"
         stdDeviation="3.4516385"
         id="feGaussianBlur5751" />
    </filter>
    <filter
       inkscape:collect="always"
       id="filter5757"
       color-interpolation-filters="sRGB">
      <feGaussianBlur
         inkscape:collect="always"
         stdDeviation="6.6935245"
         id="feGaussianBlur5759" />
    </filter>
    <filter
       inkscape:collect="always"
       id="filter5761"
       x="-0.20370407"
       width="1.4074082"
       y="-0.062797301"
       height="1.1255946"
       color-interpolation-filters="sRGB">
      <feGaussianBlur
         inkscape:collect="always"
         stdDeviation="11.352868"
         id="feGaussianBlur5763" />
    </filter>
    <radialGradient
       inkscape:collect="always"
       xlink:href="#linearGradient5768"
       id="radialGradient5774"
       cx="762.62964"
       cy="536.02679"
       fx="762.62964"
       fy="536.02679"
       r="765.7616"
       gradientTransform="matrix(1.0447116,0,0,0.78353367,3.2719836,180.00495)"
       gradientUnits="userSpaceOnUse" />
    <filter
       color-interpolation-filters="sRGB"
       inkscape:menu-tooltip="Inky splotches underneath the object"
       inkscape:menu="Protrusions"
       inkscape:label="Ink bleed"
       id="filter3814">
      <feGaussianBlur
         stdDeviation="4.2000000000000002"
         in="SourceGraphic"
         result="result1"
         id="feGaussianBlur3816" />
      <feTurbulence
         baseFrequency="0.042000000000000003"
         numOctaves="4"
         result="result0"
         id="feTurbulence3818" />
      <feDisplacementMap
         in="result1"
         xChannelSelector="R"
         yChannelSelector="G"
         scale="42"
         result="result2"
         in2="result0"
         id="feDisplacementMap3820" />
      <feColorMatrix
         result="result3"
         values="2 0 0 0 0 0 2 0 0 0 0 0 2 0 0 0 0 0 0.7 0"
         id="feColorMatrix3822" />
      <feGaussianBlur
         stdDeviation="42"
         in="SourceGraphic"
         result="result4"
         id="feGaussianBlur3824" />
      <feComposite
         in="result4"
         in2="result3"
         id="feComposite3826" />
    </filter>
    <linearGradient
       y2="1457.2866"
       x2="533.05945"
       y1="1583.1045"
       x1="533.05945"
       gradientUnits="userSpaceOnUse"
       id="linearGradient3987"
       xlink:href="#linearGradient5088-4"
       inkscape:collect="always" />
    <linearGradient
       y2="1457.2866"
       x2="533.05945"
       y1="1583.1045"
       x1="533.05945"
       gradientUnits="userSpaceOnUse"
       id="linearGradient3985"
       xlink:href="#linearGradient5088-4"
       inkscape:collect="always" />
    <linearGradient
       y2="1457.2866"
       x2="533.05945"
       y1="1583.1045"
       x1="533.05945"
       gradientUnits="userSpaceOnUse"
       id="linearGradient3983"
       xlink:href="#linearGradient5088-4"
       inkscape:collect="always" />
    <linearGradient
       y2="1457.2866"
       x2="533.05945"
       y1="1583.1045"
       x1="533.05945"
       gradientUnits="userSpaceOnUse"
       id="linearGradient3981"
       xlink:href="#linearGradient5088-4"
       inkscape:collect="always" />
    <linearGradient
       y2="1457.2866"
       x2="533.05945"
       y1="1583.1045"
       x1="533.05945"
       gradientUnits="userSpaceOnUse"
       id="linearGradient3979"
       xlink:href="#linearGradient5088-4"
       inkscape:collect="always" />
    <linearGradient
       y2="1457.2866"
       x2="533.05945"
       y1="1583.1045"
       x1="533.05945"
       gradientUnits="userSpaceOnUse"
       id="linearGradient3977"
       xlink:href="#linearGradient5088-4"
       inkscape:collect="always" />
    <linearGradient
       y2="1457.2866"
       x2="533.05945"
       y1="1583.1045"
       x1="533.05945"
       gradientUnits="userSpaceOnUse"
       id="linearGradient3975"
       xlink:href="#linearGradient5088-4"
       inkscape:collect="always" />
    <linearGradient
       id="linearGradient5088-4"
       inkscape:collect="always">
      <stop
         id="stop5090-3"
         offset="0"
         style="stop-color:#af0000;stop-opacity:1;" />
      <stop
         id="stop5092-1"
         offset="1"
         style="stop-color:#af0000;stop-opacity:0;" />
    </linearGradient>
    <linearGradient
       gradientUnits="userSpaceOnUse"
       y2="1457.2866"
       x2="533.05945"
       y1="1583.1045"
       x1="533.05945"
       id="linearGradient3952"
       xlink:href="#linearGradient5088-4"
       inkscape:collect="always" />
    <filter
       x="-0.5"
       y="-1.5"
       height="4"
       width="2"
       color-interpolation-filters="sRGB"
       inkscape:menu-tooltip="Blur as if the object flies vertically; adjust Standard Deviation to vary force"
       inkscape:menu="Blurs"
       inkscape:label="Motion blur, vertical"
       id="filter4202-5">
      <feTurbulence
         type="fractalNoise"
         numOctaves="2"
         baseFrequency="0.14299516908212559"
         id="feTurbulence4204-5" />
      <feColorMatrix
         result="result5"
         values="1 0 0 0 0 0 1 0 0 0 0 0 1 0 0 0 0 0 6 -3.5 "
         id="feColorMatrix4206-4" />
      <feComposite
         result="result6"
         in="SourceGraphic"
         operator="in"
         in2="result5"
         id="feComposite4208-7" />
      <feMorphology
         in="result6"
         operator="dilate"
         radius="5"
         result="result3"
         id="feMorphology4210-6" />
      <feDisplacementMap
         in="result3"
         xChannelSelector="R"
         yChannelSelector="A"
         scale="10"
         result="result4"
         in2="result3"
         id="feDisplacementMap4212-5" />
      <feComposite
         k3="1"
         k1="1"
         result="result2"
         operator="arithmetic"
         in2="result4"
         id="feComposite4214-6"
         k2="0"
         k4="0" />
      <feBlend
         in="result2"
         mode="darken"
         in2="result2"
         id="feBlend4216-9" />
      <feConvolveMatrix
         result="fbSourceGraphic"
         edgeMode="none"
         divisor="2"
         targetY="1"
         targetX="1"
         kernelMatrix="2 0 0 0 1 0 0 0 -1 "
         order="3 3"
         id="feConvolveMatrix4218-3" />
      <feColorMatrix
         id="feColorMatrix4220-7"
         values="0 0 0 -1 0 0 0 0 -1 0 0 0 0 -1 0 0 0 0 1 0"
         in="fbSourceGraphic"
         result="fbSourceGraphicAlpha" />
      <feGaussianBlur
         stdDeviation="5"
         in="fbSourceGraphic"
         result="result1"
         id="feGaussianBlur4222-4" />
      <feTurbulence
         baseFrequency="0.02"
         numOctaves="4"
         result="result0"
         id="feTurbulence4224-5" />
      <feDisplacementMap
         in="result1"
         xChannelSelector="R"
         yChannelSelector="G"
         scale="20"
         result="result2"
         in2="result0"
         id="feDisplacementMap4226-2" />
      <feColorMatrix
         result="result3"
         values="2 0 0 0 0 0 2 0 0 0 0 0 2 0 0 0 0 0 0.7 0"
         id="feColorMatrix4229-5" />
      <feGaussianBlur
         stdDeviation="1.1"
         in="fbSourceGraphic"
         result="result4"
         id="feGaussianBlur4231-4" />
      <feComposite
         result="fbSourceGraphic"
         in="result4"
         in2="result3"
         id="feComposite4233-7" />
      <feColorMatrix
         id="feColorMatrix4268-4"
         values="0 0 0 -1 0 0 0 0 -1 0 0 0 0 -1 0 0 0 0 1 0"
         in="fbSourceGraphic"
         result="fbSourceGraphicAlpha" />
      <feGaussianBlur
         in="fbSourceGraphic"
         result="result1"
         stdDeviation="0.01"
         id="feGaussianBlur4270-4" />
      <feBlend
         mode="multiply"
         result="fbSourceGraphic"
         in2="result1"
         id="feBlend4272-3" />
      <feTurbulence
         result="result3"
         numOctaves="3"
         seed="0"
         type="fractalNoise"
         baseFrequency="0.20000000000000001"
         id="feTurbulence4274-0" />
      <feDisplacementMap
         result="result2"
         scale="30"
         yChannelSelector="G"
         xChannelSelector="R"
         in="fbSourceGraphic"
         in2="result3"
         id="feDisplacementMap4276-7" />
      <feMorphology
         result="result4"
         operator="dilate"
         radius="1"
         id="feMorphology4278-8" />
      <feBlend
         result="fbSourceGraphic"
         mode="screen"
         in2="result2"
         id="feBlend4280-6" />
      <feColorMatrix
         id="feColorMatrix4282-8"
         values="0 0 0 -1 0 0 0 0 -1 0 0 0 0 -1 0 0 0 0 1 0"
         in="fbSourceGraphic"
         result="fbSourceGraphicAlpha" />
      <feGaussianBlur
         stdDeviation="0.01 60"
         in="fbSourceGraphic"
         id="feGaussianBlur4284-8" />
    </filter>
  </defs>
  <metadata
     id="metadata7">
    <rdf:RDF>
      <cc:Work
         rdf:about="">
        <dc:format>image/svg+xml</dc:format>
        <dc:type
           rdf:resource="http://purl.org/dc/dcmitype/StillImage" />
        <dc:title />
      </cc:Work>
    </rdf:RDF>
  </metadata>
  <g
     inkscape:groupmode="layer"
     id="Clock"
     inkscape:label="Clock"
     style="display:inline">
    <rect
       inkscape:transform-center-x="141.69687"
       style="opacity:0.42000002;fill:#ffffff;fill-opacity:1;fill-rule:nonzero;stroke:none;filter:url(#filter5745)"
       id="rect5737"
       width="430"
       height="60"
       x="146.54369"
       y="807.42212"
       transform="matrix(0.76604444,-0.64278762,0.64278762,0.76604444,-156.96787,309.791)"
       inkscape:transform-center-y="118.89775" />
    <rect
       y="570"
       x="400"
       height="60"
       width="430"
       id="rect5735"
       style="opacity:0.8;fill:#ffffff;fill-opacity:1;fill-rule:nonzero;stroke:none"
       inkscape:transform-center-x="184.97211" />
    <path
       sodipodi:type="arc"
       style="opacity:0;fill:none;stroke:#ffffff;stroke-width:47.85000229;stroke-miterlimit:4;stroke-opacity:1;stroke-dasharray:none"
       id="path4921"
       sodipodi:cx="868.66669"
       sodipodi:cy="603.33331"
       sodipodi:rx="478"
       sodipodi:ry="478"
       d="m 1346.6667,603.33331 a 478,478 0 1 1 -956.00001,0 478,478 0 1 1 956.00001,0 z"
       transform="matrix(1.044932,0,0,1.0449321,-107.69762,-30.442356)" />
    <rect
       style="opacity:0.8;fill:#ffffff;fill-opacity:1;fill-rule:nonzero;stroke:none"
       id="rect4929"
       width="60"
       height="330"
       x="770"
       y="300" />
    <rect
       inkscape:transform-center-y="182.16195"
       transform="matrix(0.17364817,-0.98480776,0.98480776,0.17364817,-198.51465,654.58549)"
       y="943.83881"
       x="-172.83049"
       height="60"
       width="430"
       id="rect5739"
       style="opacity:0.2;fill:#ffffff;fill-opacity:1;fill-rule:nonzero;stroke:none;filter:url(#filter5749)"
       inkscape:transform-center-x="32.120085" />
    <rect
       inkscape:transform-center-x="-92.486039"
       style="opacity:0.1;fill:#ffffff;fill-opacity:1;fill-rule:nonzero;stroke:none;filter:url(#filter5757)"
       id="rect5741"
       width="430"
       height="60"
       x="-519.60132"
       y="962.79614"
       transform="matrix(-0.50000001,-0.86602541,0.86602541,-0.50000001,-119.6292,992.79617)"
       inkscape:transform-center-y="160.19057" />
    <rect
       inkscape:transform-center-y="63.264169"
       transform="matrix(-0.93969263,-0.34202014,0.34202014,-0.93969263,70.173744,1283.6298)"
       y="862.00763"
       x="-851.94312"
       height="60"
       width="430"
       id="rect5743"
       style="opacity:0.1;fill:#ffffff;fill-opacity:1;fill-rule:nonzero;stroke:none;filter:url(#filter5761)"
       inkscape:transform-center-x="-173.81696" />
  </g>
  <g
     inkscape:groupmode="layer"
     id="layer1"
     inkscape:label="Logo">
    <g
       style="fill:#ffffff;fill-opacity:1;display:inline"
       transform="translate(-75.58366,-1439.0238)"
       id="aptosid"
       inkscape:label="aptosid">
      <text
         xml:space="preserve"
         style="font-size:144px;font-style:normal;font-variant:normal;font-weight:bold;font-stretch:normal;text-align:start;line-height:125%;letter-spacing:0px;word-spacing:0px;writing-mode:lr-tb;text-anchor:start;fill:#ffffff;fill-opacity:1;stroke:none;font-family:Dustismo;-inkscape-font-specification:Dustismo Bold"
         x="246.53732"
         y="1555.3855"
         id="text3113"
         sodipodi:linespacing="125%"
         inkscape:export-filename="logo-current.png"
         inkscape:export-xdpi="90"
         inkscape:export-ydpi="90"><tspan
           sodipodi:role="line"
           id="tspan3115"
           x="246.53732"
           y="1555.3855"
           dx="0 0 26.252148"><tspan
             dx="-0.98228282 -4.3535538 121.26881"
             style="font-size:144px;font-style:normal;font-variant:normal;font-weight:bold;font-stretch:normal;text-align:start;line-height:125%;writing-mode:lr-tb;text-anchor:start;fill:#ffffff;fill-opacity:1;stroke:none;font-family:Dustismo;-inkscape-font-specification:Dustismo Bold"
             id="tspan3117">to </tspan></tspan></text>
      <path
         sodipodi:nodetypes="ccccc"
         inkscape:connector-curvature="0"
         id="path4055"
         d="m 448.25844,1456.6341 9.895,9.894 -9.895,9.895 -9.894,-9.895 z"
         style="fill:#ffffff;fill-opacity:1;fill-rule:nonzero;stroke:none" />
      <path
         inkscape:export-ydpi="90"
         inkscape:export-xdpi="90"
         inkscape:export-filename="logo-current.png"
         sodipodi:nodetypes="cccccccccsccccscccscscs"
         inkscape:connector-curvature="0"
         id="path3127"
         d="m 207.94439,1485.6954 c -9.0469,10e-5 -16.51565,3.5156 -22.375,10.5 l 0,-9 -11.32858,0 0,83.875 -13.21875,0 0,11.5937 24.54733,0 0,-36.2812 c 5.85935,6.9844 13.3281,10.4687 22.375,10.4687 9.4687,0 17.54682,-3.5625 24.25,-10.6875 6.56243,-7.0313 9.84368,-15.2968 9.84375,-24.8125 -7e-5,-9.5155 -3.28132,-17.7968 -9.84375,-24.875 -6.70318,-7.1718 -14.7813,-10.7811 -24.25,-10.7812 z m 0,11.625 c 6.28121,0 11.62495,2.4531 16.03125,7.375 4.26557,4.7813 6.37494,10.3282 6.375,16.6562 -6e-5,6.2813 -2.15631,11.7969 -6.46875,16.5313 -4.45318,4.9219 -9.75004,7.375 -15.9375,7.375 -6.23441,0 -11.53128,-2.4531 -15.84375,-7.375 -4.12502,-4.6875 -6.18752,-10.2031 -6.1875,-16.5313 -2e-5,-6.3749 2.04685,-11.9218 6.125,-16.6562 4.31247,-4.9219 9.62497,-7.375 15.90625,-7.375 z"
         style="fill:#ffffff;fill-opacity:1;fill-rule:nonzero;stroke:none" />
      <path
         inkscape:export-ydpi="90"
         inkscape:export-xdpi="90"
         inkscape:export-filename="logo-current.png"
         sodipodi:nodetypes="ccccccssscccccsscccscscs"
         inkscape:connector-curvature="0"
         id="path3129"
         d="m 508.45717,1459.9767 0,11.5937 13.25,0 0,24.625 c -5.5313,-6.9844 -12.89068,-10.4999 -22.125,-10.5 -9.51566,10e-5 -17.90627,3.5626 -25.125,10.6875 -7.17188,7.1251 -10.75,15.4532 -10.75,24.9687 0,9.5157 3.54687,17.8282 10.625,24.9063 7.0781,7.0781 15.35935,10.5937 24.875,10.5937 9.14058,0 16.64057,-3.4843 22.5,-10.4687 l 0,9 11.35225,0 0,-95.4062 z m -10.0625,37.3437 c 0.39002,-0.019 0.79199,0 1.1875,0 6.2812,0 11.53119,2.4531 15.75,7.375 4.03119,4.7344 6.03119,10.2813 6.03125,16.6562 -6e-5,6.3282 -2.07819,11.8594 -6.25,16.5938 -4.35943,4.875 -9.67192,7.3125 -15.90625,7.3125 -6.32815,0 -11.89065,-2.375 -16.71875,-7.1563 -4.78127,-4.8281 -7.18751,-10.4218 -7.1875,-16.75 -1e-5,-6.328 2.48435,-11.8906 7.40625,-16.7187 4.61423,-4.5704 9.83725,-7.0269 15.6875,-7.3125 z"
         style="fill:#ffffff;fill-opacity:1;fill-rule:nonzero;stroke:none" />
      <path
         inkscape:export-ydpi="90"
         inkscape:export-xdpi="90"
         inkscape:export-filename="logo-current.png"
         sodipodi:nodetypes="ccscccsscscccsssscsaczsccc"
         d="m 414.17377,1509.6121 c -0.2813,-4.3126 -2.7422,-7.5235 -7.3829,-9.6328 -3.6093,-1.6407 -7.8749,-2.461 -12.7968,-2.461 -3.5625,0 -6.9844,0.6563 -10.2657,1.9688 -4.3124,1.6875 -6.4687,4.0078 -6.4687,6.9609 0,3.1406 2.4141,5.5547 7.2422,7.2422 3.0469,1.0781 7.0473,1.1402 14.8125,2.1078 15.0809,1.8793 25.2899,7.7759 25.5469,20.3922 0.1345,6.608 -3.2813,11.8359 -9.8438,15.6797 -5.4843,3.2343 -11.8125,4.8515 -18.9844,4.8515 -7.8749,0 -14.578,-1.5938 -20.1093,-4.7812 -6.4687,-3.7032 -10.2187,-9.1641 -11.25,-16.3828 l 11.3203,-2.3906 c 1.1719,5.1093 4.4297,8.6015 9.1524,10.1015 4.7226,1.5 8.0365,1.9757 11.7382,1.875 4.5938,-0.125 9.0781,-1.3672 11.6524,-2.836 2.7293,-1.5573 4.5495,-3.0879 4.6523,-5.6952 0.1829,-4.6371 -3.9067,-7.2691 -12.2504,-8.7691 -6.0938,-0.75 -12.519,-1.2319 -18.6168,-2.6919 -4.9423,-1.1833 -9.4489,-3.0019 -12.5859,-6.539 -2.874,-3.2406 -4.5703,-6.586 -4.5703,-12.1641 0,-5.6719 2.4141,-10.1484 7.8164,-14.1328 5.4024,-3.9844 12.7852,-6.3281 21.5039,-6.3281 7.8282,0 14.4844,1.5937 19.9688,4.7812 6.4218,3.75 10.1484,9.2109 11.1796,16.3828 l -11.4609,2.461"
         style="font-size:144px;font-style:normal;font-variant:normal;font-weight:bold;font-stretch:normal;text-align:start;line-height:125%;letter-spacing:0px;word-spacing:0px;writing-mode:lr-tb;text-anchor:start;fill:#ffffff;fill-opacity:1;stroke:none;font-family:Dustismo;-inkscape-font-specification:Dustismo Bold"
         id="path4040"
         inkscape:connector-curvature="0" />
      <path
         style="font-size:144px;font-style:normal;font-variant:normal;font-weight:bold;font-stretch:normal;text-align:center;line-height:125%;letter-spacing:0px;word-spacing:0px;writing-mode:lr-tb;text-anchor:middle;fill:#ffffff;fill-opacity:1;stroke:none;font-family:Dustismo;-inkscape-font-specification:Dustismo Bold"
         d="m 126.30444,1485.6954 c -9.51565,10e-5 -17.87502,3.5626 -25.09375,10.6875 -7.17188,7.1251 -10.78126,15.4219 -10.78125,24.9375 -1e-5,9.5156 3.54687,17.8281 10.625,24.9062 7.07811,7.0781 15.39059,10.625 24.90625,10.625 9.11103,0 16.58644,-3.4982 22.4375,-10.4375 l 0,8.9375 15.99556,0 0,-11.5937 -4.65625,0 0,-55.8125 -11.27681,0 0,8.2187 c -5.53131,-6.9843 -12.92192,-10.4686 -22.15625,-10.4687 z m 0,11.5937 c 6.28121,0 11.5312,2.4532 15.75,7.375 4.03119,4.7344 6.03118,10.2813 6.03125,16.6563 -7e-5,6.3281 -2.07818,11.8594 -6.25,16.5937 -4.35942,4.875 -9.64067,7.3125 -15.875,7.3125 -6.32816,0 -11.9219,-2.3749 -16.75,-7.1562 -4.78126,-4.8281 -7.15627,-10.4219 -7.15625,-16.75 -2e-5,-6.3281 2.45311,-11.8906 7.375,-16.7188 4.92185,-4.875 10.54684,-7.3125 16.875,-7.3125 z"
         id="path3962"
         inkscape:connector-curvature="0"
         sodipodi:nodetypes="ccssscccccccccscccscscs" />
      <path
         sodipodi:nodetypes="ccccccc"
         d="m 433.60678,1487.1824 20.32031,0 0,68.2031 -11.60156,0 0,-56.6016 -8.71875,0 0,-11.6015"
         style="font-size:144px;font-style:normal;font-variant:normal;font-weight:bold;font-stretch:normal;text-align:start;line-height:125%;letter-spacing:0px;word-spacing:0px;writing-mode:lr-tb;text-anchor:start;fill:#ffffff;fill-opacity:1;stroke:none;font-family:Dustismo;-inkscape-font-specification:Dustismo Bold"
         id="path4336"
         inkscape:connector-curvature="0" />
    </g>
    <path
       style="color:#000000;fill:#ffffff;fill-opacity:1;stroke:none;stroke-width:7;marker:none;visibility:visible;display:inline;overflow:visible"
       d="m 1370.7481,772.33899 c -24.1373,0.43133 -46.4515,29.26438 -46.4515,29.26438 -36.7876,-30.36062 -36.557,40.73773 -36.557,40.73773 -34.2231,15.79452 -25.3624,71.81366 -25.3624,71.81366 l 10.6836,2.36901 c -8.5773,16.80227 -13.4242,35.76888 -13.4242,55.83447 0,5.92385 0.4395,11.71426 1.254,17.41915 -18.1011,3.06635 -52.9359,11.10311 -46.9157,26.75601 l -3.2051,6.4568 c 0,0 -16.1441,6.4585 -12.9135,16.9546 1.9375,6.2943 17.4724,18.9134 29.636,28.0566 -4.436,1.751 -18.4705,8.0904 -15.0038,17.6049 4.1001,11.2469 56.3454,41.5276 56.3454,41.5276 l -25.5946,-38.9262 c 0,0 45.9018,-5.4079 62.0588,-20.1135 2.045,1.6804 4.1203,3.3244 6.271,4.8774 -8.893,4.2289 -14.7494,9.8124 -11.9846,17.0012 l -3.2515,6.4568 c 0,0 -16.1441,6.4585 -12.9135,16.9548 3.2308,10.4959 44.4078,38.7402 44.4073,38.7402 l -20.206,-36.325 c 0,0 22.8274,-3.1596 38.6008,-11.334 -1.6567,22.5806 16.6159,50.2393 46.916,67.6796 29.3546,16.8961 61.2692,19.1027 80.2213,7.6179 -9.4209,-1.4228 -19.7537,-4.9886 -29.7288,-10.7302 -26.6014,-15.3113 -40.994,-40.2271 -32.1443,-55.6023 8.82,-15.3237 37.4364,-15.3903 63.9633,-0.2322 -8.0064,-10.3622 -19.0394,-20.0278 -32.4229,-27.7315 -0.5274,-0.3033 -1.0506,-0.5883 -1.5793,-0.8824 7.5606,-3.6228 14.6874,-7.988 21.3211,-12.9599 1.6042,7.3673 4.4039,15.0049 8.5006,22.4359 5.4105,9.8146 12.2834,17.9277 19.6952,23.8761 -10.6441,-19.4513 -10.2618,-40.2098 0.9754,-46.405 11.275,-6.2158 29.1943,4.6011 39.9483,24.1083 4.0328,7.315 6.4794,14.8377 7.3856,21.6928 5.9168,-9.3694 7.149,-23.2985 3.484,-38.0901 6.2094,-3.9284 37.6532,-24.1789 40.8771,-33.6773 3.5626,-10.4959 -14.2606,-16.9547 -14.2606,-16.9547 l -3.5305,-6.4567 c 3.3616,-7.9238 -4.8545,-13.8955 -16.3507,-18.2554 6.2103,-4.74553 11.521,-9.48465 12.4956,-12.356 2.591,-7.64082 -10.4051,-12.30937 -10.4051,-12.30937 l -2.555,-4.69164 c 4.8046,-11.32514 -22.7998,-17.15797 -37.3933,-19.41662 -8.5474,-60.69319 -61.5605,-107.48844 -125.3719,-107.48844 -30.6378,0 -58.79,10.77047 -80.7324,28.7069 4.0985,-11.6483 6.9679,-21.13534 6.9679,-21.13534 15.1699,3.33917 30.3326,-36.78938 30.3326,-36.78938 13.1479,2.89399 64.2421,-13.42441 64.2421,-13.42441 0,0 16.8665,17.4585 25.0371,4.41288 8.1724,-13.04253 25.0373,0.23238 25.0373,0.23238 -38.9693,-54.16806 -49.6565,-15.18973 -49.6565,-15.18973 l -10.8228,-8.73277 c -8.2247,-9.97795 -17.1898,-13.53399 -25.9199,-13.37797 z m 0.3713,5.76002 c 16.7688,-0.52542 22.9006,15.37572 22.9006,15.37528 -7.694,4.92005 -58.6678,3.62321 -58.6678,3.62321 15.2924,-13.96632 26.9838,-18.72325 35.7672,-18.99849 z m -57.3672,23.50436 c 3.6695,-0.11432 6.2709,1.25419 6.2709,1.25419 l -18.5805,28.14939 c -4.4857,4.8673 -1.9234,10.38642 0.929,14.12131 2.2292,1.77741 3.9939,3.43194 4.0878,4.31988 0,0 -2.1072,-1.72729 -4.0878,-4.31988 -4.1451,-3.30554 -9.9403,-7.01427 -9.9403,-7.01427 3.5003,-30.69098 14.3154,-36.29254 21.3209,-36.51062 z m -25.3159,47.19448 c -8.2168,7.28467 -2.5084,49.00554 -2.5084,49.00598 l -18.3946,8.36123 c -2.6137,-36.94349 20.903,-57.36721 20.903,-57.36721 z m 97.8264,15.79342 c 60.7062,0 109.6249,48.26027 109.6251,107.76697 0,0.85936 -0.026,1.70026 -0.046,2.55478 -29.7951,44.05078 -109.0915,16.4802 -155.1472,-15.88641 -43.7047,-30.7145 -60.0691,2.52796 -64.1027,13.56379 -2e-4,-0.0792 0,-0.15389 0,-0.23216 0,-59.5067 48.9651,-107.76697 109.6714,-107.76697 z m -13.2852,69.58402 59.4113,45.33638 c 13.2426,-22.47198 -59.4113,-45.33638 -59.4113,-45.33638 z m 99.7311,3.66959 c -10.2985,-0.32954 -14.2607,42.54945 -14.2607,42.54945 l 17.6515,-40.92372 c -1.2036,-1.05326 -2.3255,-1.59165 -3.3908,-1.62573 z m 38.926,20.29929 c 20.8185,-0.0835 34.1418,14.63221 34.1418,14.63221 l -0.3251,7.33919 c -6.8028,0 -39.5299,-13.51739 -39.5299,-13.51739 l -0.9757,-7.9431 c 2.3081,-0.35812 4.5353,-0.50234 6.6889,-0.51091 z m -187.2914,23.2256 c 7.8315,-0.19346 18.9058,7.43218 18.9058,7.43218 97.3078,38.80685 148.8296,1.34697 148.8296,1.34697 -14.3102,36.12858 -154.549,29.44228 -163.1369,28.10298 -8.5877,-1.339 -15.7185,-20.10053 -11.4267,-32.14411 1.2076,-3.38732 3.7636,-4.66196 6.8282,-4.73802 z m 226.264,1.39357 c 0,0 14.9264,3.81447 6.5032,6.45675 l -6.5032,-6.45675 z m -38.4617,2.60117 c 12.6303,5.7405 30.3792,7.94309 30.3792,7.94309 l -4.3198,7.0607 c -10.1994,-2.72322 -20.4332,-4.40941 -27.4064,-5.38836 0.5903,-3.16022 1.0047,-6.37695 1.347,-9.61543 z m -251.58,8.63999 c 2.6836,0.022 5.4388,0.25128 8.315,0.74329 l -1.208,10.86961 c 0,0 -40.7619,18.5804 -49.2381,18.5804 l -0.4184,-10.08 c 0,0 16.6095,-20.22784 42.5495,-20.1133 z m 253.9029,5.62069 c 28.611,-0.11432 46.9157,20.11331 46.9157,20.11331 l -0.4646,10.0799 c -9.3507,0 -54.3017,-18.5341 -54.3017,-18.5341 l -1.347,-10.916 c 3.1721,-0.49205 6.2376,-0.73146 9.1976,-0.74311 z m -27.3136,11.47331 c -16.0007,20.5853 -116.9168,52.0688 -119.3797,53.2797 -2.4631,1.2109 -18.4412,-6.063 -18.4412,-14.5392 0,-8.4765 8.5934,-14.5395 8.5934,-14.5395 20.9221,10.8982 129.2275,-24.201 129.2275,-24.201 z m -216.277,12.6347 c 1.7136,3.7169 3.6509,7.3113 5.7134,10.8233 -22.8057,4.4267 -49.7162,12.5841 -43.6176,25.9663 l -0.4182,0.6967 -10.4978,-18.8593 c 0,0 36.0012,-4.9856 48.8202,-18.627 z m 229.562,2.462 c 0.1034,0.1517 0.1715,0.3144 0.279,0.4646 -0.1429,-0.055 -0.2755,-0.1319 -0.4181,-0.1847 0.046,-0.092 0.092,-0.1847 0.1407,-0.2788 z m -288.4622,1.6258 -8.0827,8.8721 c -10.4961,-3.6327 8.0827,-8.8721 8.0827,-8.8721 z m 356.0954,5.667 c 0,0 20.4483,5.2395 8.8723,8.8722 l -8.8723,-8.8722 z m -276.0133,2.88 c 3.406,0.022 6.9402,0.2625 10.5907,0.7896 l -1.5328,11.7057 c 0,0 -51.7168,19.8812 -62.4772,19.8812 l -0.5109,-10.8231 c 0,0 21.0039,-21.6763 53.9302,-21.5534 z m 180.0916,0.046 c -7.0569,18.5643 10.4978,68.3762 10.4978,68.3762 0,0 -9.1249,-12.9779 -15.8864,-35.5815 -6.7614,-22.6037 5.3886,-32.7947 5.3886,-32.7947 z m 47.1015,2.369 c 16.8576,6.6204 37.6718,9.1976 37.6718,9.1976 l -14.725,29.1714 c -1.6697,-6.0136 -4.0776,-12.1161 -7.3858,-18.1161 -4.379,-7.9441 -9.7491,-14.777 -15.561,-20.2529 z m -173.1239,28.6606 c 2.6834,0.022 5.4389,0.2512 8.3146,0.743 l -1.2078,10.9163 c 0,0 -40.7619,18.5341 -49.2381,18.5341 l -0.3718,-10.0801 c 0,0 16.5627,-20.2279 42.5031,-20.1133 z m 180.5094,1.4399 c 0.3852,-0.022 0.7605,-0.022 1.1612,0 1.4805,0.026 3.0462,0.2643 4.6919,0.7897 6.6335,14.9433 4.4129,29.032 4.4129,29.032 0,0 -2.9312,-12.4887 -8.5006,-18.8127 -5.5697,-6.3237 -10.7767,-8.0361 -10.7767,-8.0361 -0.6949,0.5285 3.2348,-2.6695 9.0113,-2.9729 z m -296.2195,3.7626 -10.2193,9.4761 c -13.3224,-3.8943 10.2193,-9.4761 10.2193,-9.4761 z m 190.45,17.6515 c 0.5494,-0.022 1.1164,-0.022 1.7188,0 19.2827,0.7141 24.294,10.0334 24.294,10.0334 0,0 -15.7237,-3.5999 -24.294,-0.7433 -8.5701,2.8568 -11.4267,7.8503 -11.4267,7.8503 0.6914,1.3839 -7.3205,-16.66 9.7079,-17.1404 z m -68.9799,3.5769 c 10.151,39.8992 94.2494,90.0224 94.2494,90.0224 0,0 -28.9628,-5.9463 -65.2175,-30.565 -36.2545,-24.6187 -29.0319,-59.4574 -29.0319,-59.4574 z m -54.3481,7.4319 -8.0825,8.8724 c -10.4963,-3.6327 8.0825,-8.8724 8.0825,-8.8724 z"
       id="outline"
       inkscape:connector-curvature="0" />
  </g>
</svg>
