<?xml version="1.0" encoding="UTF-8" standalone="no"?>
<!-- Created with Inkscape (http://www.inkscape.org/) -->

<svg
   xmlns:dc="http://purl.org/dc/elements/1.1/"
   xmlns:cc="http://creativecommons.org/ns#"
   xmlns:rdf="http://www.w3.org/1999/02/22-rdf-syntax-ns#"
   xmlns:svg="http://www.w3.org/2000/svg"
   xmlns="http://www.w3.org/2000/svg"
   xmlns:sodipodi="http://sodipodi.sourceforge.net/DTD/sodipodi-0.dtd"
   xmlns:inkscape="http://www.inkscape.org/namespaces/inkscape"
   width="1920"
   height="1200"
   id="svg2"
   version="1.1"
   inkscape:version="0.47 r22583"
   sodipodi:docname="background.svg"
   inkscape:export-filename="/home/rick/aptosid-art/ksplash themes/aptosid-apate/backbround.png"
   inkscape:export-xdpi="90"
   inkscape:export-ydpi="90">
  <defs
     id="defs4">
    <filter
       id="filter3814"
       inkscape:label="Ink bleed"
       inkscape:menu="Protrusions"
       inkscape:menu-tooltip="Inky splotches underneath the object"
       color-interpolation-filters="sRGB">
      <feGaussianBlur
         id="feGaussianBlur3816"
         result="result1"
         in="SourceGraphic"
         stdDeviation="4.2000000000000002" />
      <feTurbulence
         id="feTurbulence3818"
         result="result0"
         numOctaves="4"
         baseFrequency="0.042000000000000003" />
      <feDisplacementMap
         id="feDisplacementMap3820"
         in2="result0"
         result="result2"
         scale="42"
         yChannelSelector="G"
         xChannelSelector="R"
         in="result1" />
      <feColorMatrix
         id="feColorMatrix3822"
         values="2 0 0 0 0 0 2 0 0 0 0 0 2 0 0 0 0 0 0.7 0"
         result="result3" />
      <feGaussianBlur
         id="feGaussianBlur3824"
         result="result4"
         in="SourceGraphic"
         stdDeviation="42" />
      <feComposite
         id="feComposite3826"
         in2="result3"
         in="result4" />
    </filter>
  </defs>
  <sodipodi:namedview
     id="base"
     pagecolor="#1e72a0"
     bordercolor="#666666"
     borderopacity="1.0"
     inkscape:pageopacity="1"
     inkscape:pageshadow="2"
     inkscape:zoom="0.35"
     inkscape:cx="286.90955"
     inkscape:cy="746.10419"
     inkscape:document-units="px"
     inkscape:current-layer="layer1"
     showgrid="false"
     inkscape:window-width="1912"
     inkscape:window-height="1153"
     inkscape:window-x="0"
     inkscape:window-y="0"
     inkscape:window-maximized="1" />
  <metadata
     id="metadata7">
    <rdf:RDF>
      <cc:Work
         rdf:about="">
        <dc:format>image/svg+xml</dc:format>
        <dc:type
           rdf:resource="http://purl.org/dc/dcmitype/StillImage" />
        <dc:title />
      </cc:Work>
    </rdf:RDF>
  </metadata>
  <g
     inkscape:groupmode="layer"
     id="layer1"
     inkscape:label="Logo">
    <g
       style="fill:#ffffff;fill-opacity:1;display:inline"
       transform="translate(1371.7073,-439.85404)"
       id="aptosid"
       inkscape:label="aptosid">
      <text
         xml:space="preserve"
         style="font-size:144px;font-style:normal;font-variant:normal;font-weight:bold;font-stretch:normal;text-align:start;line-height:125%;letter-spacing:0px;word-spacing:0px;writing-mode:lr-tb;text-anchor:start;fill:#ffffff;fill-opacity:1;stroke:none;font-family:Dustismo;-inkscape-font-specification:Dustismo Bold"
         x="246.53732"
         y="1555.3855"
         id="text3113"
         sodipodi:linespacing="125%"
         inkscape:export-filename="logo-current.png"
         inkscape:export-xdpi="90"
         inkscape:export-ydpi="90"><tspan
           sodipodi:role="line"
           id="tspan3115"
           x="246.53732"
           y="1555.3855"
           dx="0 0 26.252148"><tspan
             dx="-0.98228282 -4.3535538 121.26881"
             style="font-size:144px;font-style:normal;font-variant:normal;font-weight:bold;font-stretch:normal;text-align:start;line-height:125%;writing-mode:lr-tb;text-anchor:start;fill:#ffffff;fill-opacity:1;stroke:none;font-family:Dustismo;-inkscape-font-specification:Dustismo Bold"
             id="tspan3117">to </tspan></tspan></text>
      <path
         sodipodi:nodetypes="ccccc"
         inkscape:connector-curvature="0"
         id="path4055"
         d="m 448.25844,1456.6341 9.895,9.894 -9.895,9.895 -9.894,-9.895 z"
         style="fill:#ffffff;fill-opacity:1;fill-rule:nonzero;stroke:none" />
      <path
         inkscape:export-ydpi="90"
         inkscape:export-xdpi="90"
         inkscape:export-filename="logo-current.png"
         sodipodi:nodetypes="cccccccccsccccscccscscs"
         inkscape:connector-curvature="0"
         id="path3127"
         d="m 207.94439,1485.6954 c -9.0469,10e-5 -16.51565,3.5156 -22.375,10.5 l 0,-9 -11.32858,0 0,83.875 -13.21875,0 0,11.5937 24.54733,0 0,-36.2812 c 5.85935,6.9844 13.3281,10.4687 22.375,10.4687 9.4687,0 17.54682,-3.5625 24.25,-10.6875 6.56243,-7.0313 9.84368,-15.2968 9.84375,-24.8125 -7e-5,-9.5155 -3.28132,-17.7968 -9.84375,-24.875 -6.70318,-7.1718 -14.7813,-10.7811 -24.25,-10.7812 z m 0,11.625 c 6.28121,0 11.62495,2.4531 16.03125,7.375 4.26557,4.7813 6.37494,10.3282 6.375,16.6562 -6e-5,6.2813 -2.15631,11.7969 -6.46875,16.5313 -4.45318,4.9219 -9.75004,7.375 -15.9375,7.375 -6.23441,0 -11.53128,-2.4531 -15.84375,-7.375 -4.12502,-4.6875 -6.18752,-10.2031 -6.1875,-16.5313 -2e-5,-6.3749 2.04685,-11.9218 6.125,-16.6562 4.31247,-4.9219 9.62497,-7.375 15.90625,-7.375 z"
         style="fill:#ffffff;fill-opacity:1;fill-rule:nonzero;stroke:none" />
      <path
         inkscape:export-ydpi="90"
         inkscape:export-xdpi="90"
         inkscape:export-filename="logo-current.png"
         sodipodi:nodetypes="ccccccssscccccsscccscscs"
         inkscape:connector-curvature="0"
         id="path3129"
         d="m 508.45717,1459.9767 0,11.5937 13.25,0 0,24.625 c -5.5313,-6.9844 -12.89068,-10.4999 -22.125,-10.5 -9.51566,10e-5 -17.90627,3.5626 -25.125,10.6875 -7.17188,7.1251 -10.75,15.4532 -10.75,24.9687 0,9.5157 3.54687,17.8282 10.625,24.9063 7.0781,7.0781 15.35935,10.5937 24.875,10.5937 9.14058,0 16.64057,-3.4843 22.5,-10.4687 l 0,9 11.35225,0 0,-95.4062 z m -10.0625,37.3437 c 0.39002,-0.019 0.79199,0 1.1875,0 6.2812,0 11.53119,2.4531 15.75,7.375 4.03119,4.7344 6.03119,10.2813 6.03125,16.6562 -6e-5,6.3282 -2.07819,11.8594 -6.25,16.5938 -4.35943,4.875 -9.67192,7.3125 -15.90625,7.3125 -6.32815,0 -11.89065,-2.375 -16.71875,-7.1563 -4.78127,-4.8281 -7.18751,-10.4218 -7.1875,-16.75 -1e-5,-6.328 2.48435,-11.8906 7.40625,-16.7187 4.61423,-4.5704 9.83725,-7.0269 15.6875,-7.3125 z"
         style="fill:#ffffff;fill-opacity:1;fill-rule:nonzero;stroke:none" />
      <path
         inkscape:export-ydpi="90"
         inkscape:export-xdpi="90"
         inkscape:export-filename="logo-current.png"
         sodipodi:nodetypes="ccscccsscscccsssscsaczsccc"
         d="m 414.17377,1509.6121 c -0.2813,-4.3126 -2.7422,-7.5235 -7.3829,-9.6328 -3.6093,-1.6407 -7.8749,-2.461 -12.7968,-2.461 -3.5625,0 -6.9844,0.6563 -10.2657,1.9688 -4.3124,1.6875 -6.4687,4.0078 -6.4687,6.9609 0,3.1406 2.4141,5.5547 7.2422,7.2422 3.0469,1.0781 7.0473,1.1402 14.8125,2.1078 15.0809,1.8793 25.2899,7.7759 25.5469,20.3922 0.1345,6.608 -3.2813,11.8359 -9.8438,15.6797 -5.4843,3.2343 -11.8125,4.8515 -18.9844,4.8515 -7.8749,0 -14.578,-1.5938 -20.1093,-4.7812 -6.4687,-3.7032 -10.2187,-9.1641 -11.25,-16.3828 l 11.3203,-2.3906 c 1.1719,5.1093 4.4297,8.6015 9.1524,10.1015 4.7226,1.5 8.0365,1.9757 11.7382,1.875 4.5938,-0.125 9.0781,-1.3672 11.6524,-2.836 2.7293,-1.5573 4.5495,-3.0879 4.6523,-5.6952 0.1829,-4.6371 -3.9067,-7.2691 -12.2504,-8.7691 -6.0938,-0.75 -12.519,-1.2319 -18.6168,-2.6919 -4.9423,-1.1833 -9.4489,-3.0019 -12.5859,-6.539 -2.874,-3.2406 -4.5703,-6.586 -4.5703,-12.1641 0,-5.6719 2.4141,-10.1484 7.8164,-14.1328 5.4024,-3.9844 12.7852,-6.3281 21.5039,-6.3281 7.8282,0 14.4844,1.5937 19.9688,4.7812 6.4218,3.75 10.1484,9.2109 11.1796,16.3828 l -11.4609,2.461"
         style="font-size:144px;font-style:normal;font-variant:normal;font-weight:bold;font-stretch:normal;text-align:start;line-height:125%;letter-spacing:0px;word-spacing:0px;writing-mode:lr-tb;text-anchor:start;fill:#ffffff;fill-opacity:1;stroke:none;font-family:Dustismo;-inkscape-font-specification:Dustismo Bold"
         id="path4040"
         inkscape:connector-curvature="0" />
      <path
         style="font-size:144px;font-style:normal;font-variant:normal;font-weight:bold;font-stretch:normal;text-align:center;line-height:125%;letter-spacing:0px;word-spacing:0px;writing-mode:lr-tb;text-anchor:middle;fill:#ffffff;fill-opacity:1;stroke:none;font-family:Dustismo;-inkscape-font-specification:Dustismo Bold"
         d="m 126.30444,1485.6954 c -9.51565,10e-5 -17.87502,3.5626 -25.09375,10.6875 -7.17188,7.1251 -10.78126,15.4219 -10.78125,24.9375 -1e-5,9.5156 3.54687,17.8281 10.625,24.9062 7.07811,7.0781 15.39059,10.625 24.90625,10.625 9.11103,0 16.58644,-3.4982 22.4375,-10.4375 l 0,8.9375 15.99556,0 0,-11.5937 -4.65625,0 0,-55.8125 -11.27681,0 0,8.2187 c -5.53131,-6.9843 -12.92192,-10.4686 -22.15625,-10.4687 z m 0,11.5937 c 6.28121,0 11.5312,2.4532 15.75,7.375 4.03119,4.7344 6.03118,10.2813 6.03125,16.6563 -7e-5,6.3281 -2.07818,11.8594 -6.25,16.5937 -4.35942,4.875 -9.64067,7.3125 -15.875,7.3125 -6.32816,0 -11.9219,-2.3749 -16.75,-7.1562 -4.78126,-4.8281 -7.15627,-10.4219 -7.15625,-16.75 -2e-5,-6.3281 2.45311,-11.8906 7.375,-16.7188 4.92185,-4.875 10.54684,-7.3125 16.875,-7.3125 z"
         id="path3962"
         inkscape:connector-curvature="0"
         sodipodi:nodetypes="ccssscccccccccscccscscs" />
      <path
         sodipodi:nodetypes="ccccccc"
         d="m 433.60678,1487.1824 20.32031,0 0,68.2031 -11.60156,0 0,-56.6016 -8.71875,0 0,-11.6015"
         style="font-size:144px;font-style:normal;font-variant:normal;font-weight:bold;font-stretch:normal;text-align:start;line-height:125%;letter-spacing:0px;word-spacing:0px;writing-mode:lr-tb;text-anchor:start;fill:#ffffff;fill-opacity:1;stroke:none;font-family:Dustismo;-inkscape-font-specification:Dustismo Bold"
         id="path4336"
         inkscape:connector-curvature="0" />
    </g>
    <path
       style="color:#000000;fill:#ffffff;fill-opacity:1;stroke:none;stroke-width:7;marker:none;visibility:visible;display:inline;overflow:visible"
       d="m 1359.3191,996.74971 c -10.9793,0.1962 -21.1294,13.31149 -21.1294,13.31149 -16.7338,-13.81014 -16.6289,18.5305 -16.6289,18.5305 -15.5671,7.1846 -11.5367,32.6662 -11.5367,32.6662 l 4.8598,1.0776 c -3.9017,7.6429 -6.1064,16.2703 -6.1064,25.3976 0,2.6946 0.2,5.3285 0.5705,7.9235 -8.2337,1.3948 -24.0791,5.0505 -21.3407,12.1706 l -1.4579,2.937 c 0,0 -7.3435,2.9378 -5.874,7.7122 0.8813,2.863 7.9477,8.6031 13.4805,12.7622 -2.0177,0.7965 -8.4016,3.6801 -6.8248,8.008 1.8651,5.1159 25.6301,18.8897 25.6301,18.8897 l -11.6424,-17.7064 c 0,0 20.8796,-2.46 28.229,-9.1491 0.9301,0.7644 1.8742,1.5121 2.8525,2.2186 -4.0452,1.9236 -6.7091,4.4634 -5.4515,7.7334 l -1.479,2.937 c 0,0 -7.3435,2.9378 -5.874,7.7122 1.4695,4.7744 20.1998,17.622 20.1997,17.622 l -9.1913,-16.5233 c 0,0 10.3836,-1.4373 17.5586,-5.1556 -0.7536,10.2714 7.5581,22.8526 21.3408,30.7857 13.3526,7.6856 27.8697,8.6893 36.4904,3.4652 -4.2852,-0.6473 -8.9853,-2.2692 -13.5227,-4.8809 -12.1003,-6.9647 -18.6471,-18.2982 -14.6217,-25.292 4.0121,-6.9703 17.0289,-7.0006 29.0953,-0.1056 -3.642,-4.7135 -8.6605,-9.1102 -14.7484,-12.6143 -0.2398,-0.138 -0.4778,-0.2677 -0.7183,-0.4015 3.4391,-1.6478 6.6809,-3.6334 9.6983,-5.8951 0.7297,3.3513 2.0033,6.8254 3.8667,10.2056 2.4612,4.4644 5.5875,8.1548 8.9589,10.8605 -4.8417,-8.8478 -4.6678,-18.2904 0.4437,-21.1083 5.1287,-2.8274 13.2796,2.0929 18.1713,10.9661 1.8345,3.3275 2.9474,6.7494 3.3596,9.8675 2.6914,-4.2619 3.2519,-10.5979 1.5847,-17.3261 2.8245,-1.7869 17.1275,-10.9983 18.5939,-15.3189 1.6206,-4.7743 -6.4867,-7.7122 -6.4867,-7.7122 l -1.6059,-2.937 c 1.529,-3.6043 -2.2082,-6.3207 -7.4375,-8.3039 2.8249,-2.1586 5.2406,-4.3143 5.6839,-5.6204 1.1786,-3.4756 -4.7331,-5.5993 -4.7331,-5.5993 l -1.1621,-2.1341 c 2.1855,-5.1514 -10.3711,-7.8046 -17.0092,-8.8321 -3.8881,-27.6076 -28.0022,-48.8935 -57.0283,-48.8935 -13.9363,0 -26.742,4.8992 -36.723,13.058 1.8643,-5.2985 3.1694,-9.6139 3.1694,-9.6139 6.9005,1.5189 13.7975,-16.7345 13.7975,-16.7345 5.9807,1.3164 29.2221,-6.1064 29.2221,-6.1064 0,0 7.6721,7.9413 11.3887,2.0073 3.7174,-5.9327 11.3888,0.1056 11.3888,0.1056 -17.7261,-24.6395 -22.5874,-6.9093 -22.5874,-6.9093 l -4.9231,-3.9723 c -3.7411,-4.53871 -7.8191,-6.15626 -11.7903,-6.08529 z m 0.169,2.62005 c 7.6277,-0.239 10.4169,6.99404 10.4169,6.99384 -3.4998,2.238 -26.6864,1.6481 -26.6864,1.6481 6.9561,-6.3529 12.2742,-8.51674 16.2695,-8.64194 z m -26.0948,10.69144 c 1.6692,-0.052 2.8524,0.5705 2.8524,0.5705 l -8.4517,12.8045 c -2.0404,2.214 -0.8749,4.7244 0.4226,6.4233 1.014,0.8086 1.8166,1.5612 1.8594,1.9651 0,0 -0.9585,-0.7857 -1.8594,-1.9651 -1.8855,-1.5035 -4.5216,-3.1905 -4.5216,-3.1905 1.5922,-13.9605 6.5117,-16.5085 9.6983,-16.6078 z m -11.5155,21.4676 c -3.7376,3.3136 -1.141,22.2913 -1.141,22.2915 l -8.3672,3.8033 c -1.1889,-16.8046 9.5082,-26.0948 9.5082,-26.0948 z m 44.4986,7.184 c 27.6136,0 49.8654,21.9523 49.8655,49.0203 0,0.3908 -0.012,0.7734 -0.021,1.1621 -13.553,20.0375 -49.6229,7.4964 -70.5724,-7.2263 -19.8801,-13.9713 -27.3237,1.1499 -29.1586,6.1698 0,-0.036 0,-0.07 0,-0.1056 0,-27.068 22.273,-49.0203 49.8867,-49.0203 z m -6.0431,31.6519 27.0246,20.6223 c 6.0237,-10.2219 -27.0246,-20.6223 -27.0246,-20.6223 z m 45.365,1.6692 c -4.6845,-0.1499 -6.4868,19.3546 -6.4868,19.3546 l 8.0292,-18.6151 c -0.5475,-0.4791 -1.0578,-0.724 -1.5424,-0.7395 z m 17.7064,9.2336 c 9.4698,-0.038 15.5302,6.6557 15.5302,6.6557 l -0.148,3.3385 c -3.0944,0 -17.9811,-6.1487 -17.9811,-6.1487 l -0.4437,-3.6131 c 1.0499,-0.1629 2.0629,-0.2285 3.0426,-0.2324 z m -85.1939,10.5647 c 3.5624,-0.089 8.5997,3.3807 8.5997,3.3807 44.2627,17.6522 67.6987,0.6127 67.6987,0.6127 -6.5094,16.4339 -70.3002,13.3925 -74.2066,12.7833 -3.9063,-0.6092 -7.1499,-9.1432 -5.1977,-14.6216 0.5492,-1.5407 1.712,-2.1205 3.1059,-2.1551 z m 102.9215,0.6339 c 0,0 6.7896,1.7351 2.9581,2.937 l -2.9581,-2.937 z m -17.4952,1.1832 c 5.7452,2.6112 13.8187,3.6131 13.8187,3.6131 l -1.9651,3.2117 c -4.6393,-1.2387 -9.2944,-2.0057 -12.4663,-2.451 0.2685,-1.4375 0.4569,-2.9008 0.6127,-4.3738 z m -114.437,3.9301 c 1.2207,0.01 2.474,0.1143 3.7822,0.3381 l -0.5494,4.9442 c 0,0 -18.5416,8.4518 -22.3972,8.4518 l -0.1902,-4.5851 c 0,0 7.5552,-9.2011 19.3546,-9.149 z m 115.4935,2.5566 c 13.0145,-0.052 21.3407,9.1491 21.3407,9.1491 l -0.2112,4.5851 c -4.2534,0 -24.7004,-8.4307 -24.7004,-8.4307 l -0.6128,-4.9654 c 1.4429,-0.2238 2.8374,-0.3327 4.1837,-0.3381 z m -12.4241,5.219 c -7.2784,9.3637 -53.1823,23.6847 -54.3027,24.2355 -1.1203,0.5508 -8.3883,-2.7579 -8.3883,-6.6135 0,-3.8557 3.9089,-6.6136 3.9089,-6.6136 9.5169,4.9573 58.7821,-11.0084 58.7821,-11.0084 z m -98.3786,5.7472 c 0.7795,1.6907 1.6607,3.3257 2.5989,4.9232 -10.3737,2.0136 -22.6147,5.7241 -19.8405,11.8113 l -0.1902,0.317 -4.7753,-8.5786 c 0,0 16.3761,-2.2678 22.2071,-8.4729 z m 104.4216,1.1199 c 0.047,0.069 0.078,0.143 0.1268,0.2113 -0.065,-0.025 -0.1253,-0.06 -0.1902,-0.084 0.021,-0.042 0.042,-0.084 0.064,-0.1268 z m -131.2137,0.7395 -3.6766,4.0357 c -4.7744,-1.6524 3.6766,-4.0357 3.6766,-4.0357 z m 161.9782,2.5778 c 0,0 9.3014,2.3833 4.0357,4.0357 l -4.0357,-4.0357 z m -125.551,1.31 c 1.5492,0.01 3.1569,0.1194 4.8174,0.3592 l -0.6973,5.3246 c 0,0 -23.5245,9.0434 -28.4191,9.0434 l -0.2324,-4.9231 c 0,0 9.5541,-9.8601 24.5314,-9.8041 z m 81.9187,0.021 c -3.2099,8.4444 4.7752,31.1025 4.7752,31.1025 0,0 -4.1506,-5.9033 -7.2262,-16.1851 -3.0756,-10.2818 2.451,-14.9174 2.451,-14.9174 z m 21.4252,1.0776 c 7.6682,3.0114 17.136,4.1837 17.136,4.1837 l -6.698,13.2692 c -0.7595,-2.7353 -1.8548,-5.5112 -3.3596,-8.2404 -1.992,-3.6136 -4.4346,-6.7217 -7.0784,-9.2125 z m -78.7493,13.0369 c 1.2206,0.01 2.4739,0.1143 3.7821,0.338 l -0.5494,4.9654 c 0,0 -18.5415,8.4307 -22.3971,8.4307 l -0.1691,-4.5851 c 0,0 7.5339,-9.2011 19.3335,-9.149 z m 82.1089,0.655 c 0.1752,-0.01 0.3459,-0 0.5282,0 0.6733,0.012 1.3856,0.1202 2.1342,0.3592 3.0173,6.7973 2.0072,13.2059 2.0072,13.2059 0,0 -1.3332,-5.6808 -3.8667,-8.5574 -2.5335,-2.8765 -4.9019,-3.6554 -4.9019,-3.6554 -0.3162,0.2403 1.4714,-1.2143 4.099,-1.3523 z m -134.7424,1.7115 -4.6484,4.3104 c -6.06,-1.7714 4.6484,-4.3104 4.6484,-4.3104 z m 86.6307,8.0292 c 0.2499,-0.01 0.5078,-0.01 0.7817,0 8.7713,0.3248 11.0508,4.5639 11.0508,4.5639 0,0 -7.1523,-1.6375 -11.0508,-0.3381 -3.8982,1.2995 -5.1977,3.5709 -5.1977,3.5709 0.3146,0.6295 -3.3299,-7.5783 4.416,-7.7967 z m -31.3772,1.6269 c 4.6175,18.1492 42.8716,40.9489 42.8716,40.9489 0,0 -13.1745,-2.7048 -29.6657,-13.9032 -16.4912,-11.1984 -13.2059,-27.0457 -13.2059,-27.0457 z m -24.7215,3.3807 -3.6764,4.0358 c -4.7745,-1.6525 3.6764,-4.0358 3.6764,-4.0358 z"
       id="outline"
       inkscape:connector-curvature="0" />
  </g>
</svg>
